<svg width="30" height="26" viewBox="0 0 30 26" fill="none" xmlns="http://www.w3.org/2000/svg">
<path d="M26.75 26H3.25C2.38805 26 1.5614 25.6576 0.951903 25.0481C0.34241 24.4386 0 23.612 0 22.75V22C0 21.7348 0.105357 21.4804 0.292893 21.2929C0.48043 21.1054 0.734784 21 1 21C1.26522 21 1.51957 21.1054 1.70711 21.2929C1.89464 21.4804 2 21.7348 2 22V22.75C2 23.0815 2.1317 23.3995 2.36612 23.6339C2.60054 23.8683 2.91848 24 3.25 24H26.75C27.0815 24 27.3995 23.8683 27.6339 23.6339C27.8683 23.3995 28 23.0815 28 22.75V7.25C28 6.91848 27.8683 6.60054 27.6339 6.36612C27.3995 6.1317 27.0815 6 26.75 6H3.25C2.91848 6 2.60054 6.1317 2.36612 6.36612C2.1317 6.60054 2 6.91848 2 7.25V16.13C2 16.3952 1.89464 16.6496 1.70711 16.8371C1.51957 17.0246 1.26522 17.13 1 17.13C0.734784 17.13 0.48043 17.0246 0.292893 16.8371C0.105357 16.6496 0 16.3952 0 16.13V7.25C0 6.38805 0.34241 5.5614 0.951903 4.9519C1.5614 4.34241 2.38805 4 3.25 4H26.75C27.612 4 28.4386 4.34241 29.0481 4.9519C29.6576 5.5614 30 6.38805 30 7.25V22.75C30 23.612 29.6576 24.4386 29.0481 25.0481C28.4386 25.6576 27.612 26 26.75 26Z" fill="#2563EB"/>
<path d="M15 16C9.98795 16.0156 5.04097 14.8653 0.549988 12.64L1.43999 10.85C5.65203 12.9431 10.2916 14.0323 14.995 14.0323C19.6984 14.0323 24.3379 12.9431 28.55 10.85L29.44 12.64C24.952 14.8638 20.0086 16.014 15 16ZM21 6H8.99999V2.25C8.99999 1.65326 9.23704 1.08097 9.659 0.65901C10.081 0.237053 10.6533 0 11.25 0H18.75C19.3467 0 19.919 0.237053 20.341 0.65901C20.7629 1.08097 21 1.65326 21 2.25V6ZM11 4H19V2.25C19 2.1837 18.9736 2.12011 18.9268 2.07322C18.8799 2.02634 18.8163 2 18.75 2H11.25C11.1837 2 11.1201 2.02634 11.0732 2.07322C11.0263 2.12011 11 2.1837 11 2.25V4Z" fill="#2563EB"/>
<path d="M6.06 18.31C5.79478 18.31 5.54043 18.2046 5.35289 18.0171C5.16535 17.8296 5.06 17.5752 5.06 17.31V13.75H7.06V17.31C7.06 17.5752 6.95464 17.8296 6.7671 18.0171C6.57957 18.2046 6.32521 18.31 6.06 18.31ZM24 18.31C23.7348 18.31 23.4804 18.2046 23.2929 18.0171C23.1054 17.8296 23 17.5752 23 17.31V13.75H25V17.31C25 17.5752 24.8946 17.8296 24.7071 18.0171C24.5196 18.2046 24.2652 18.31 24 18.31Z" fill="#2563EB"/>
</svg>
