<svg width="480" height="512" viewBox="0 0 480 512" fill="none" xmlns="http://www.w3.org/2000/svg">
<path d="M263.64 304H142.5C140.511 304 138.603 304.79 137.197 306.197C135.79 307.603 135 309.511 135 311.5C135 313.489 135.79 315.397 137.197 316.803C138.603 318.21 140.511 319 142.5 319H263.64C265.629 319 267.537 318.21 268.943 316.803C270.35 315.397 271.14 313.489 271.14 311.5C271.14 309.511 270.35 307.603 268.943 306.197C267.537 304.79 265.629 304 263.64 304ZM135 206.5C135 208.489 135.79 210.397 137.197 211.803C138.603 213.21 140.511 214 142.5 214H328.5C330.489 214 332.397 213.21 333.803 211.803C335.21 210.397 336 208.489 336 206.5C336 204.511 335.21 202.603 333.803 201.197C332.397 199.79 330.489 199 328.5 199H142.5C140.511 199 138.603 199.79 137.197 201.197C135.79 202.603 135 204.511 135 206.5ZM178.39 80.87H194.85V145.05C194.85 148.05 198.44 149.64 202.13 149.64C205.82 149.64 209.41 148.07 209.41 145.05V80.87H225.76C228.67 80.87 230.35 77.74 230.35 74.26C230.35 71.13 228.9 67.77 225.76 67.77H178.39C175.25 67.77 173.8 71.13 173.8 74.26C173.8 77.85 175.48 80.87 178.39 80.87ZM268.51 229H142.51C140.521 229 138.613 229.79 137.207 231.197C135.8 232.603 135.01 234.511 135.01 236.5C135.01 238.489 135.8 240.397 137.207 241.803C138.613 243.21 140.521 244 142.51 244H268.51C270.499 244 272.407 243.21 273.813 241.803C275.22 240.397 276.01 238.489 276.01 236.5C276.01 234.511 275.22 232.603 273.813 231.197C272.407 229.79 270.499 229 268.51 229ZM142.51 349H223.51C225.499 349 227.407 348.21 228.813 346.803C230.22 345.397 231.01 343.489 231.01 341.5C231.01 339.511 230.22 337.603 228.813 336.197C227.407 334.79 225.499 334 223.51 334H142.51C140.521 334 138.613 334.79 137.207 336.197C135.8 337.603 135.01 339.511 135.01 341.5C135.01 343.489 135.8 345.397 137.207 346.803C138.613 348.21 140.521 349 142.51 349ZM337.7 390.17C342.903 390.167 347.944 388.359 351.964 385.056C355.984 381.753 358.734 377.158 359.746 372.055C360.758 366.951 359.969 361.654 357.514 357.067C355.059 352.48 351.089 348.886 346.281 346.897C341.473 344.909 336.124 344.649 331.146 346.162C326.168 347.675 321.868 350.867 318.98 355.195C316.091 359.522 314.793 364.717 315.305 369.895C315.817 375.073 318.109 379.913 321.79 383.59C323.876 385.68 326.355 387.337 329.084 388.466C331.812 389.595 334.737 390.174 337.69 390.17H337.7ZM332.4 362.38C333.625 361.159 335.236 360.4 336.958 360.233C338.68 360.066 340.406 360.501 341.843 361.464C343.281 362.427 344.34 363.858 344.84 365.514C345.341 367.17 345.252 368.948 344.588 370.546C343.925 372.144 342.729 373.462 341.203 374.277C339.677 375.092 337.915 375.352 336.219 375.014C334.522 374.676 332.995 373.761 331.898 372.423C330.8 371.086 330.2 369.41 330.2 367.68C330.196 366.696 330.387 365.72 330.763 364.81C331.139 363.9 331.692 363.074 332.39 362.38H332.4ZM136.28 137.54C124.85 137.54 121.83 128.92 117.28 128.92C113.8 128.92 110.89 133.62 110.89 136.76C110.89 143.25 122.09 150.65 136.76 150.65C152.22 150.65 163.42 142.36 163.42 126.34C163.42 97.34 127.42 102.15 127.42 88.26C127.42 82.89 132.01 79.64 140.07 79.64C149.48 79.64 152.07 83.89 155.53 83.89C159.53 83.89 161.35 78.74 161.35 76.17C161.35 68.78 146.68 67.17 140.07 67.17C127.19 67.17 112.86 72.88 112.86 89.57C112.86 116.11 148.86 110.96 148.86 127.76C148.82 134.52 143 137.54 136.28 137.54ZM142.5 424H233.64C235.629 424 237.537 423.21 238.943 421.803C240.35 420.397 241.14 418.489 241.14 416.5C241.14 414.511 240.35 412.603 238.943 411.197C237.537 409.79 235.629 409 233.64 409H142.5C140.511 409 138.603 409.79 137.197 411.197C135.79 412.603 135 414.511 135 416.5C135 418.489 135.79 420.397 137.197 421.803C138.603 423.21 140.511 424 142.5 424ZM239.64 439H142.5C140.511 439 138.603 439.79 137.197 441.197C135.79 442.603 135 444.511 135 446.5C135 448.489 135.79 450.397 137.197 451.803C138.603 453.21 140.511 454 142.5 454H239.64C241.629 454 243.537 453.21 244.943 451.803C246.35 450.397 247.14 448.489 247.14 446.5C247.14 444.511 246.35 442.603 244.943 441.197C243.537 439.79 241.629 439 239.64 439ZM97.5 289H67.5C61.5343 289.005 55.8144 291.378 51.5959 295.596C47.3775 299.814 45.0053 305.534 45 311.5V341.5C45.0053 347.466 47.3775 353.186 51.5959 357.404C55.8144 361.622 61.5343 363.995 67.5 364H97.5C103.465 363.992 109.183 361.619 113.401 357.401C117.619 353.183 119.992 347.465 120 341.5V311.5C119.992 305.535 117.619 299.817 113.401 295.599C109.183 291.381 103.465 289.008 97.5 289ZM105 341.5C104.997 343.488 104.206 345.394 102.8 346.8C101.394 348.206 99.4883 348.997 97.5 349H67.5C65.5109 349 63.6032 348.21 62.1967 346.803C60.7902 345.397 60 343.489 60 341.5V311.5C60 309.511 60.7902 307.603 62.1967 306.197C63.6032 304.79 65.5109 304 67.5 304H97.5C99.4883 304.003 101.394 304.794 102.8 306.2C104.206 307.606 104.997 309.512 105 311.5V341.5ZM97.5 184H67.5C61.5343 184.005 55.8144 186.378 51.5959 190.596C47.3775 194.814 45.0053 200.534 45 206.5V236.5C45.0053 242.466 47.3775 248.186 51.5959 252.404C55.8144 256.622 61.5343 258.995 67.5 259H97.5C103.465 258.992 109.183 256.619 113.401 252.401C117.619 248.183 119.992 242.465 120 236.5V206.5C119.992 200.535 117.619 194.817 113.401 190.599C109.183 186.381 103.465 184.008 97.5 184ZM105 236.5C104.997 238.488 104.206 240.394 102.8 241.8C101.394 243.206 99.4883 243.997 97.5 244H67.5C65.5109 244 63.6032 243.21 62.1967 241.803C60.7902 240.397 60 238.489 60 236.5V206.5C60 204.511 60.7902 202.603 62.1967 201.197C63.6032 199.79 65.5109 199 67.5 199H97.5C99.4883 199.003 101.394 199.794 102.8 201.2C104.206 202.606 104.997 204.512 105 206.5V236.5ZM417.31 351.7C416.614 351.003 415.788 350.451 414.879 350.074C413.969 349.697 412.995 349.502 412.01 349.502C411.026 349.502 410.051 349.697 409.141 350.074C408.232 350.451 407.406 351.003 406.71 351.7L321.71 436.7C320.973 437.387 320.382 438.215 319.972 439.135C319.562 440.055 319.342 441.048 319.324 442.055C319.306 443.062 319.492 444.062 319.869 444.996C320.246 445.93 320.807 446.778 321.52 447.49C322.232 448.203 323.08 448.764 324.014 449.141C324.948 449.518 325.948 449.704 326.955 449.686C327.962 449.668 328.955 449.448 329.875 449.038C330.795 448.628 331.623 448.037 332.31 447.3L417.31 362.3C418.007 361.604 418.559 360.778 418.936 359.869C419.313 358.959 419.508 357.984 419.508 357C419.508 356.016 419.313 355.041 418.936 354.131C418.559 353.222 418.007 352.396 417.31 351.7ZM474.79 392.15C476.922 388.822 478.336 385.087 478.942 381.181C479.548 377.276 479.333 373.287 478.31 369.47C477.287 365.653 475.479 362.091 473.001 359.012C470.523 355.934 467.43 353.406 463.92 351.59C461.636 350.415 459.737 348.611 458.447 346.39C457.156 344.17 456.529 341.626 456.64 339.06C456.825 335.112 456.184 331.169 454.758 327.482C453.331 323.796 451.151 320.449 448.356 317.654C445.561 314.859 442.214 312.679 438.528 311.252C434.841 309.826 430.898 309.185 426.95 309.37C424.389 309.486 421.849 308.867 419.628 307.586C417.408 306.305 415.601 304.415 414.42 302.14C411.773 297.035 407.639 292.854 402.564 290.151C397.489 287.447 391.713 286.349 386 287V102.5C386 102.25 386 102 386 101.75C386 101.5 385.95 101.39 385.92 101.21V101.02C385.92 100.81 385.82 100.59 385.76 100.38C385.759 100.357 385.759 100.333 385.76 100.31C385.7 100.1 385.62 99.89 385.54 99.68V99.63C385.46 99.4321 385.37 99.2385 385.27 99.05C385.274 99.0201 385.274 98.9899 385.27 98.96C385.18 98.79 385.08 98.63 384.98 98.47L384.89 98.33C384.79 98.18 384.68 98.04 384.57 97.9C384.533 97.8443 384.493 97.7909 384.45 97.74C384.331 97.5931 384.204 97.4529 384.07 97.32L383.96 97.2L288.96 2.20001L288.64 2.09001L288.22 1.71001L288.06 1.58001L287.64 1.27001L287.5 1.18001C287.34 1.08001 287.18 0.980006 287.01 0.890006L286.91 0.840006C286.73 0.750006 286.54 0.650006 286.34 0.570006H286.29C286.08 0.490006 285.87 0.410006 285.65 0.350006H285.59C285.37 0.290006 285.16 0.230006 284.94 0.190006H284.76L284.25 6.30599e-06C284 -0.0149354 283.75 -0.0149354 283.5 6.30505e-06L37.5 6.30599e-06C27.5576 0.0105946 18.0255 3.96488 10.9952 10.9952C3.96487 18.0255 0.0105883 27.5576 0 37.5V474.5C0.0105883 484.442 3.96487 493.975 10.9952 501.005C18.0255 508.035 27.5576 511.989 37.5 512H348.5C350.068 511.998 351.597 511.505 352.87 510.59C355.182 509.85 357.387 508.811 359.43 507.5C361.592 506.123 364.102 505.392 366.665 505.392C369.228 505.392 371.738 506.123 373.9 507.5C377.227 509.634 380.962 511.05 384.867 511.657C388.772 512.265 392.761 512.051 396.579 511.029C400.396 510.006 403.959 508.199 407.038 505.721C410.117 503.243 412.645 500.151 414.46 496.64C415.642 494.365 417.45 492.475 419.669 491.193C421.889 489.91 424.429 489.288 426.99 489.4C430.935 489.58 434.874 488.934 438.555 487.505C442.236 486.076 445.579 483.895 448.369 481.101C451.16 478.306 453.337 474.961 454.761 471.278C456.185 467.594 456.825 463.655 456.64 459.71C456.527 457.149 457.148 454.608 458.431 452.388C459.714 450.168 461.604 448.361 463.88 447.18C467.39 445.364 470.483 442.836 472.961 439.758C475.439 436.679 477.247 433.117 478.27 429.3C479.293 425.483 479.508 421.494 478.902 417.589C478.296 413.683 476.882 409.948 474.75 406.62C473.375 404.456 472.647 401.943 472.655 399.379C472.662 396.815 473.403 394.306 474.79 392.15ZM291 25.61L360.39 95H313.5C307.534 94.9947 301.814 92.6225 297.596 88.4041C293.378 84.1856 291.005 78.4658 291 72.5V25.61ZM37.5 497C31.5343 496.995 25.8144 494.622 21.5959 490.404C17.3775 486.186 15.0053 480.466 15 474.5V37.5C15.0053 31.5343 17.3775 25.8144 21.5959 21.596C25.8144 17.3775 31.5343 15.0053 37.5 15H276V72.5C276.011 82.4424 279.965 91.9745 286.995 99.0048C294.025 106.035 303.558 109.989 313.5 110H371V292.66C369.09 293.309 367.059 293.521 365.057 293.281C363.054 293.04 361.131 292.353 359.43 291.27C356.103 289.138 352.368 287.724 348.464 287.118C344.559 286.512 340.571 286.728 336.755 287.751C332.938 288.774 329.377 290.582 326.299 293.06C323.222 295.537 320.695 298.63 318.88 302.14C317.695 304.412 315.887 306.299 313.668 307.58C311.449 308.86 308.91 309.481 306.35 309.37C302.401 309.185 298.457 309.826 294.77 311.252C291.083 312.679 287.734 314.859 284.938 317.653C282.141 320.448 279.959 323.795 278.53 327.481C277.101 331.167 276.458 335.111 276.64 339.06C276.758 341.621 276.139 344.162 274.858 346.383C273.577 348.603 271.686 350.41 269.41 351.59C265.9 353.406 262.807 355.934 260.329 359.012C257.851 362.091 256.043 365.653 255.02 369.47C253.997 373.287 253.782 377.276 254.388 381.181C254.994 385.087 256.408 388.822 258.54 392.15C259.921 394.31 260.655 396.821 260.655 399.385C260.655 401.949 259.921 404.46 258.54 406.62C256.408 409.948 254.994 413.683 254.388 417.589C253.782 421.494 253.997 425.483 255.02 429.3C256.043 433.117 257.851 436.679 260.329 439.758C262.807 442.836 265.9 445.364 269.41 447.18C271.685 448.361 273.575 450.168 274.856 452.388C276.137 454.609 276.756 457.149 276.64 459.71C276.458 463.658 277.101 467.601 278.529 471.286C279.957 474.972 282.139 478.319 284.934 481.113C287.729 483.907 291.077 486.088 294.763 487.515C298.449 488.941 302.392 489.584 306.34 489.4C308.901 489.287 311.442 489.909 313.662 491.191C315.882 492.474 317.689 494.364 318.87 496.64C318.93 496.76 319 496.88 319.07 497H37.5ZM463.82 425.42C463.345 427.225 462.495 428.91 461.325 430.364C460.155 431.818 458.691 433.009 457.03 433.86C452.209 436.363 448.204 440.192 445.488 444.896C442.771 449.6 441.457 454.983 441.7 460.41C441.785 462.271 441.482 464.13 440.808 465.867C440.135 467.604 439.107 469.182 437.789 470.499C436.472 471.817 434.894 472.845 433.157 473.518C431.42 474.192 429.561 474.495 427.7 474.41C422.274 474.17 416.892 475.485 412.188 478.201C407.484 480.917 403.655 484.92 401.15 489.74C400.293 491.396 399.1 492.855 397.647 494.024C396.194 495.193 394.513 496.046 392.712 496.529C390.911 497.012 389.029 497.114 387.186 496.828C385.343 496.542 383.58 495.875 382.01 494.87C377.432 491.946 372.112 490.392 366.68 490.392C361.248 490.392 355.928 491.946 351.35 494.87C349.779 495.875 348.017 496.542 346.174 496.828C344.331 497.114 342.449 497.012 340.648 496.529C338.847 496.046 337.166 495.193 335.713 494.024C334.26 492.855 333.067 491.396 332.21 489.74C329.81 485.116 326.188 481.239 321.738 478.531C317.287 475.823 312.18 474.387 306.97 474.38C306.53 474.38 306.1 474.38 305.66 474.38C303.799 474.465 301.94 474.162 300.203 473.488C298.466 472.815 296.888 471.787 295.571 470.469C294.253 469.152 293.225 467.574 292.552 465.837C291.878 464.1 291.575 462.241 291.66 460.38C291.9 454.954 290.585 449.572 287.869 444.868C285.153 440.164 281.15 436.335 276.33 433.83C274.674 432.972 273.214 431.778 272.045 430.324C270.876 428.87 270.023 427.189 269.54 425.387C269.058 423.585 268.956 421.702 269.242 419.858C269.527 418.015 270.194 416.251 271.2 414.68C274.124 410.104 275.678 404.786 275.678 399.355C275.678 393.924 274.124 388.606 271.2 384.03C270.193 382.46 269.525 380.697 269.238 378.854C268.952 377.011 269.053 375.128 269.536 373.327C270.019 371.525 270.873 369.844 272.043 368.391C273.213 366.938 274.673 365.746 276.33 364.89C281.141 362.385 285.137 358.559 287.849 353.861C290.561 349.163 291.876 343.789 291.64 338.37C291.556 336.509 291.861 334.651 292.535 332.915C293.209 331.178 294.237 329.601 295.554 328.284C296.871 326.967 298.448 325.939 300.185 325.265C301.921 324.591 303.779 324.286 305.64 324.37C311.073 324.612 316.461 323.293 321.168 320.57C325.875 317.846 329.703 313.831 332.2 309C333.055 307.342 334.247 305.88 335.699 304.71C337.152 303.539 338.833 302.685 340.635 302.202C342.437 301.719 344.321 301.617 346.164 301.905C348.007 302.192 349.77 302.861 351.34 303.87C355.658 306.625 360.639 308.165 365.759 308.327C370.878 308.488 375.947 307.267 380.43 304.79C381.633 304.471 382.737 303.856 383.64 303C386.764 301.566 390.32 301.389 393.571 302.506C396.821 303.623 399.517 305.949 401.1 309C403.605 313.819 407.435 317.821 412.139 320.535C416.843 323.249 422.225 324.562 427.65 324.32C429.511 324.236 431.369 324.541 433.105 325.215C434.842 325.889 436.419 326.917 437.736 328.234C439.053 329.551 440.081 331.128 440.755 332.865C441.429 334.601 441.734 336.459 441.65 338.32C441.407 343.747 442.721 349.13 445.438 353.834C448.154 358.538 452.159 362.367 456.98 364.87C458.637 365.726 460.097 366.918 461.267 368.371C462.437 369.824 463.291 371.505 463.774 373.307C464.257 375.108 464.358 376.991 464.072 378.834C463.785 380.677 463.117 382.44 462.11 384.01C459.186 388.588 457.632 393.908 457.632 399.34C457.632 404.772 459.186 410.092 462.11 414.67C463.141 416.238 463.826 418.008 464.121 419.861C464.416 421.714 464.313 423.609 463.82 425.42ZM71.21 150.31C85.99 150.31 97.52 143.37 97.52 124.66V111.33C97.5475 110.715 97.4484 110.1 97.229 109.525C97.0095 108.95 96.6742 108.426 96.2439 107.985C95.8136 107.544 95.2975 107.197 94.7275 106.964C94.1575 106.731 93.5457 106.617 92.93 106.63H73.93C71.02 106.63 69.45 109.54 69.45 112.34C69.45 115.14 71.02 118.05 73.93 118.05H83V124.66C83 133.4 78.52 137.54 71.25 137.54C63.98 137.54 59.6 133.4 59.6 124.66V93.42C59.6 84.68 63.85 80.54 71.36 80.54C80.88 80.54 82.67 86.36 83 91.62C83.12 95.09 86.36 96.21 90.28 96.21C95.1 96.21 97.56 94.87 97.56 89.27C97.56 75.83 86.25 67.77 70.8 67.77C56.57 67.77 45.04 74.71 45.04 93.42V124.66C45 143.37 56.42 150.31 71.21 150.31ZM385.42 415.41C382.273 418.557 380.13 422.566 379.262 426.93C378.394 431.295 378.84 435.819 380.543 439.93C382.246 444.042 385.13 447.556 388.83 450.028C392.53 452.5 396.88 453.82 401.33 453.82C405.78 453.82 410.13 452.5 413.83 450.028C417.53 447.556 420.414 444.042 422.117 439.93C423.82 435.819 424.266 431.295 423.398 426.93C422.53 422.566 420.387 418.557 417.24 415.41C413.017 411.198 407.295 408.832 401.33 408.832C395.365 408.832 389.643 411.198 385.42 415.41ZM406.64 436.62C405.415 437.841 403.804 438.6 402.082 438.767C400.36 438.934 398.634 438.499 397.197 437.536C395.759 436.573 394.7 435.142 394.2 433.486C393.699 431.83 393.788 430.052 394.452 428.454C395.115 426.856 396.311 425.538 397.837 424.723C399.363 423.908 401.125 423.648 402.821 423.986C404.518 424.324 406.045 425.239 407.142 426.577C408.24 427.914 408.84 429.59 408.84 431.32C408.843 432.305 408.65 433.281 408.272 434.191C407.895 435.101 407.34 435.927 406.64 436.62ZM97.5 394H67.5C61.5343 394.005 55.8144 396.378 51.5959 400.596C47.3775 404.814 45.0053 410.534 45 416.5V446.5C45.0053 452.466 47.3775 458.186 51.5959 462.404C55.8144 466.622 61.5343 468.995 67.5 469H97.5C103.465 468.992 109.183 466.619 113.401 462.401C117.619 458.183 119.992 452.465 120 446.5V416.5C119.992 410.535 117.619 404.817 113.401 400.599C109.183 396.381 103.465 394.008 97.5 394ZM105 446.5C104.997 448.488 104.206 450.394 102.8 451.8C101.394 453.206 99.4883 453.997 97.5 454H67.5C65.5109 454 63.6032 453.21 62.1967 451.803C60.7902 450.397 60 448.489 60 446.5V416.5C60 414.511 60.7902 412.603 62.1967 411.197C63.6032 409.79 65.5109 409 67.5 409H97.5C99.4883 409.003 101.394 409.794 102.8 411.2C104.206 412.606 104.997 414.512 105 416.5V446.5Z" fill="#2563EB"/>
</svg>
