<svg width="512" height="512" viewBox="0 0 512 512" fill="none" xmlns="http://www.w3.org/2000/svg">
<path d="M512.001 428.048H0V458.465H512.001V428.048Z" fill="#2563EB"/>
<path d="M501.345 93.296C490.733 74.917 473.6 61.77 453.1 56.278C432.604 50.786 411.19 53.604 392.81 64.216L242.734 150.862L134.323 96.759L72.355 132.537L139.796 210.292L100.329 233.078L53.005 196.196L0 226.799L27.801 274.952L72.767 352.835L263.963 322.092L472.263 201.83C510.203 179.925 523.249 131.236 501.345 93.296ZM119.483 140.45L135.371 131.277L271.61 199.265L204.236 238.163L166.625 194.8H166.624L119.483 140.45ZM54.143 259.743L41.549 237.933L50.469 232.782L71.905 249.488L65.632 253.11L54.143 259.743ZM457.054 175.488L253.604 292.95L88.63 319.476L69.352 286.085L126.22 253.253L126.219 253.252L160.096 233.694L197.707 277.057L335.824 197.315L275.365 167.144L408.019 90.557C419.362 84.009 432.578 82.268 445.227 85.659C457.879 89.049 468.454 97.163 475.002 108.506C488.52 131.92 480.47 161.969 457.054 175.488Z" fill="#2563EB"/>
<path d="M365.543 145.022L337.007 161.498L352.215 187.839L380.751 171.363L365.543 145.022Z" fill="#2563EB"/>
<path d="M414.716 116.635L386.179 133.111L401.387 159.451L429.924 142.975L414.716 116.635Z" fill="#2563EB"/>
</svg>
