<svg width="596" height="544" viewBox="0 0 596 544" fill="none" xmlns="http://www.w3.org/2000/svg">
<path d="M168.875 192.184V149.567H57.644V192.184H83.163V283.344H57.644V325.961H168.875V283.344H143.356V192.184H168.875Z" fill="#2563EB"/>
<path d="M291.625 217.25C284.75 215.25 249.375 205.125 243.25 203.125C237.125 201.125 232.125 198.25 232.125 194.625C232.125 191 237.75 187.125 249.125 187.125C285 187.125 302.234 209.25 302.234 209.25C302.234 209.25 304.176 211.837 304.827 212.765H339.439V152.402H302.282V163.384C299.444 161.424 278.492 147.75 246 147.75C203.125 147.75 179.25 170 179.25 203.25C179.25 236.5 209.375 250.25 217.75 253.75C226.125 257.25 258.875 266.5 272.875 270.875C286.875 275.25 292 278.375 292 280.625C292 282.875 285.875 288.75 268.375 288.75C237.892 288.75 222.194 270.774 219.439 267.293V267.266C218.563 266.092 217.535 264.703 217.186 264.18C216.782 263.575 215.845 262.232 215.195 261.304H180.583V325.765H219.439V312.304C223.96 315.313 247.103 329.75 274.875 329.75C305.875 329.75 345.375 316.25 345.375 274.125C345.375 232 298.5 219.25 291.625 217.25Z" fill="#2563EB"/>
<path d="M444.035 147.157C392.357 147.157 349.973 172.995 349.973 238.952C349.973 304.909 395.984 329.614 444.261 329.614C492.538 329.614 538.096 305.135 538.096 239.633C538.096 174.131 492.54 147.157 444.035 147.157ZM444.489 285.643C426.809 285.643 415.476 281.563 415.476 238.726C415.476 195.888 423.863 191.355 445.168 191.355C458.087 191.355 473.727 192.261 473.727 237.366C473.727 282.471 462.169 285.643 444.489 285.643Z" fill="#2563EB"/>
<path d="M131.76 130.114C143.377 112.96 157.663 97.754 174.04 85.126C180.662 90.022 187.701 94.463 195.101 98.421C182.703 112.241 171.595 127.552 169.755 130.114H177.194C181.659 124.096 190.895 111.99 200.634 101.257C211.279 106.49 222.592 110.77 234.396 114.03C231.254 120.696 228.879 126.525 227.485 130.114H233.948C235.433 126.418 237.609 121.263 240.324 115.567C255.382 119.246 271.16 121.308 287.301 121.622V130.115H293.301V121.651C309.324 121.534 325.015 119.708 340.02 116.277C342.578 121.688 344.637 126.573 346.06 130.114H352.523C351.183 126.667 348.941 121.157 345.98 114.818C357.995 111.692 369.524 107.524 380.382 102.373C389.748 112.821 398.504 124.305 402.815 130.114H410.253C408.47 127.631 397.937 113.108 385.968 99.609C394.197 95.356 401.999 90.517 409.292 85.126C425.669 97.754 439.956 112.96 451.572 130.114H458.789C423.301 75.343 361.647 39.027 291.665 39.027C221.683 39.027 160.029 75.343 124.541 130.114H131.76ZM237.073 108.543C225.845 105.51 215.072 101.534 204.916 96.67C206.296 95.236 207.675 93.847 209.038 92.532C222.945 79.121 245.819 64.395 250.833 61.225C254.902 63.46 259.342 65.35 264.065 66.85C260.397 71.66 253.195 81.424 245.352 93.809C242.299 98.629 239.518 103.695 237.073 108.543ZM287.301 115.62C272.105 115.316 257.247 113.424 243.045 110.056C245.266 105.714 247.744 101.246 250.421 97.02C259.457 82.753 267.609 72.041 270.325 68.556C275.744 69.829 281.439 70.634 287.301 70.897V115.62ZM293.301 115.65V70.965C299.084 70.867 304.742 70.255 310.157 69.166C313.261 73.181 321.029 83.505 329.588 97.02C332.404 101.467 335.001 106.181 337.31 110.736C323.158 113.866 308.386 115.538 293.301 115.65ZM343.325 109.315C340.788 104.235 337.871 98.885 334.656 93.809C327.218 82.063 320.354 72.673 316.537 67.631C321.56 66.22 326.302 64.386 330.656 62.167C337.695 66.679 358.139 80.159 370.97 92.532C372.673 94.175 374.399 95.93 376.123 97.75C365.755 102.537 354.765 106.412 343.325 109.315ZM404.268 81.375C397.229 86.456 389.708 91.008 381.789 95.01C379.576 92.636 377.344 90.343 375.135 88.213C363.134 76.64 345.265 64.499 336.51 58.798C339.484 56.87 342.204 54.738 344.629 52.417C366.3 58.609 386.419 68.51 404.268 81.375ZM291.667 45.027C307.511 45.027 322.91 46.96 337.655 50.578C326.465 59.667 309.698 64.999 291.667 64.999C273.554 64.999 256.833 59.684 245.658 50.583C260.408 46.962 275.814 45.027 291.667 45.027ZM238.702 52.417C240.676 54.309 242.837 56.079 245.178 57.711C237.246 62.815 217.709 75.836 204.874 88.212C203.026 89.994 201.163 91.892 199.307 93.854C192.208 90.137 185.438 85.974 179.067 81.375C196.913 68.51 217.031 58.61 238.702 52.417Z" fill="#2563EB"/>
<path d="M451.582 345.947C440.212 362.74 426.282 377.664 410.339 390.132C402.746 384.422 394.596 379.318 385.977 374.86C396.36 363.148 405.663 350.666 409.107 345.948H401.635C397.029 352.098 388.966 362.531 380.39 372.098C369.532 366.945 358.004 362.774 345.987 359.649C348.528 354.208 350.535 349.386 351.901 345.948H345.419C344.045 349.3 342.218 353.553 340.023 358.196C325.027 354.77 309.338 352.945 293.302 352.829V345.948H287.302V352.856C271.148 353.169 255.371 355.229 240.322 358.903C237.978 353.986 236.035 349.469 234.592 345.948H228.109C229.54 349.552 231.676 354.676 234.392 360.438C222.585 363.699 211.268 367.973 200.624 373.209C191.68 363.35 183.163 352.337 178.376 345.947H170.904C174.462 350.822 184.289 364.004 195.101 376.054C187.314 380.224 179.92 384.923 172.995 390.131C157.051 377.663 143.121 362.739 131.752 345.946H124.546C160.035 400.717 221.687 437.033 291.668 437.033C361.648 437.033 423.301 400.718 458.79 345.946L451.582 345.947ZM343.328 365.155C354.772 368.057 365.762 371.931 376.131 376.72C374.404 378.542 372.677 380.3 370.971 381.946C358.18 394.279 337.801 407.728 330.709 412.276C326.355 410.048 321.607 408.214 316.568 406.803C320.392 401.752 327.238 392.38 334.656 380.667C337.873 375.59 340.79 370.237 343.328 365.155ZM293.301 358.828C308.398 358.94 323.17 360.607 337.313 363.733C335.003 368.291 332.406 373.006 329.587 377.457C321.04 390.953 313.284 401.266 310.171 405.293C304.771 404.217 299.113 403.61 293.3 403.514V358.828H293.301ZM287.301 358.858V403.576C281.417 403.837 275.716 404.632 270.304 405.896C267.569 402.385 259.443 391.703 250.421 377.457C247.742 373.228 245.262 368.757 243.04 364.411C257.234 361.047 272.092 359.161 287.301 358.858ZM237.07 365.929C239.516 370.78 242.299 375.846 245.352 380.668C253.189 393.043 260.386 402.801 264.057 407.615C259.327 409.114 254.892 411.006 250.825 413.247C245.792 410.063 222.938 395.348 209.039 381.946C207.674 380.63 206.295 379.239 204.913 377.804C215.067 372.938 225.839 368.961 237.07 365.929ZM177.98 393.893C184.667 388.977 191.797 384.545 199.298 380.616C201.156 382.58 203.023 384.481 204.873 386.265C217.705 398.638 237.236 411.656 245.171 416.762C242.344 418.741 239.767 420.917 237.477 423.279C215.835 416.937 195.76 406.897 177.98 393.893ZM291.667 431.034C275.304 431.034 259.412 428.979 244.23 425.128C255.316 415.386 272.92 409.479 291.667 409.479C310.391 409.479 328.012 415.39 339.099 425.129C323.918 428.98 308.028 431.034 291.667 431.034ZM345.853 423.279C343.131 420.474 340.02 417.916 336.549 415.653C345.319 409.942 363.152 397.82 375.135 386.264C377.345 384.133 379.577 381.839 381.792 379.463C390.115 383.673 398.003 388.489 405.353 393.892C387.572 406.898 367.496 416.938 345.853 423.279Z" fill="#2563EB"/>
<path d="M69.088 500.668C69.355 505.632 71.27 509.063 74.835 510.961C76.667 511.961 78.732 512.46 81.031 512.46C85.328 512.46 88.992 510.67 92.024 507.089C95.055 503.508 97.204 496.237 98.47 485.278C96.471 488.442 93.998 490.666 91.05 491.948C88.102 493.231 84.929 493.872 81.531 493.872C74.635 493.872 69.18 491.726 65.166 487.434C61.151 483.141 59.145 477.617 59.145 470.861C59.145 464.373 61.127 458.665 65.091 453.74C69.055 448.815 74.902 446.352 82.63 446.352C93.056 446.352 100.252 451.046 104.216 460.434C106.415 465.594 107.514 472.052 107.514 479.809C107.514 488.564 106.198 496.32 103.567 503.079C99.202 514.331 91.807 519.957 81.381 519.957C74.385 519.957 69.071 518.124 65.441 514.46C61.81 510.796 59.994 506.199 59.994 500.669H69.088V500.668ZM92.499 482.46C95.447 480.115 96.921 476.016 96.921 470.162C96.921 464.907 95.597 460.991 92.948 458.413C90.3 455.836 86.927 454.547 82.83 454.547C78.433 454.547 74.943 456.019 72.361 458.962C69.779 461.905 68.488 465.839 68.488 470.761C68.488 475.417 69.62 479.118 71.886 481.862C74.151 484.606 77.765 485.977 82.729 485.977C86.294 485.977 89.551 484.805 92.499 482.46Z" fill="#2563EB"/>
<path d="M160.181 457.895C163.379 463.791 164.978 471.87 164.978 482.13C164.978 491.857 163.529 499.901 160.631 506.265C156.434 515.392 149.57 519.956 140.044 519.956C131.449 519.956 125.053 516.226 120.856 508.763C117.358 502.534 115.609 494.172 115.609 483.679C115.609 475.551 116.659 468.572 118.757 462.741C122.687 451.882 129.8 446.452 140.093 446.452C149.354 446.452 156.05 450.267 160.181 457.895ZM151.13 505.564C153.899 501.434 155.284 493.739 155.284 482.479C155.284 474.351 154.282 467.663 152.281 462.417C150.279 457.17 146.391 454.547 140.619 454.547C135.313 454.547 131.434 457.037 128.982 462.018C126.529 466.998 125.303 474.334 125.303 484.029C125.303 491.324 126.087 497.188 127.655 501.618C130.057 508.381 134.162 511.762 139.967 511.762C144.639 511.761 148.359 509.695 151.13 505.564Z" fill="#2563EB"/>
<path d="M217.095 457.895C220.293 463.791 221.892 471.87 221.892 482.13C221.892 491.857 220.443 499.901 217.545 506.265C213.348 515.392 206.484 519.956 196.958 519.956C188.363 519.956 181.967 516.226 177.77 508.763C174.272 502.534 172.523 494.172 172.523 483.679C172.523 475.551 173.573 468.572 175.671 462.741C179.601 451.882 186.714 446.452 197.007 446.452C206.269 446.452 212.964 450.267 217.095 457.895ZM208.044 505.564C210.813 501.434 212.198 493.739 212.198 482.479C212.198 474.351 211.196 467.663 209.195 462.417C207.193 457.17 203.305 454.547 197.533 454.547C192.227 454.547 188.348 457.037 185.896 462.018C183.443 466.998 182.217 474.334 182.217 484.029C182.217 491.324 183.001 497.188 184.569 501.618C186.971 508.381 191.076 511.762 196.881 511.762C201.553 511.761 205.273 509.695 208.044 505.564Z" fill="#2563EB"/>
<path d="M236.033 467.339V460.443C242.529 459.81 247.059 458.753 249.624 457.27C252.189 455.788 254.104 452.282 255.371 446.751H262.466V518.006H252.872V467.338L236.033 467.339Z" fill="#2563EB"/>
<path d="M294.497 465.19H304.941V476.083H294.497V465.19ZM294.497 507.113H304.941V518.007H294.497V507.113Z" fill="#2563EB"/>
<path d="M318.606 501.917C320.821 497.354 325.143 493.206 331.573 489.475L341.167 483.929C345.465 481.43 348.479 479.296 350.212 477.528C352.942 474.757 354.309 471.587 354.309 468.015C354.309 463.843 353.06 460.53 350.562 458.077C348.063 455.624 344.732 454.397 340.568 454.397C334.405 454.397 330.141 456.737 327.776 461.414C326.51 463.92 325.81 467.394 325.677 471.837H316.533C316.633 465.608 317.782 460.527 319.98 456.597C323.877 449.668 330.756 446.203 340.617 446.203C348.812 446.203 354.8 448.419 358.581 452.849C362.361 457.28 364.253 462.21 364.253 467.64C364.253 473.369 362.237 478.267 358.207 482.33C355.874 484.696 351.693 487.56 345.664 490.925L338.818 494.723C335.553 496.522 332.989 498.238 331.124 499.869C327.792 502.767 325.693 505.982 324.827 509.513H363.903V518.008H314.784C315.116 511.845 316.391 506.481 318.606 501.917Z" fill="#2563EB"/>
<path d="M416.27 457.895C419.468 463.791 421.067 471.87 421.067 482.13C421.067 491.857 419.619 499.901 416.72 506.265C412.523 515.392 405.659 519.956 396.133 519.956C387.538 519.956 381.142 516.226 376.945 508.763C373.448 502.534 371.699 494.172 371.699 483.679C371.699 475.551 372.748 468.572 374.846 462.741C378.777 451.882 385.889 446.452 396.183 446.452C405.443 446.452 412.139 450.267 416.27 457.895ZM407.219 505.564C409.989 501.434 411.373 493.739 411.373 482.479C411.373 474.351 410.371 467.663 408.369 462.417C406.367 457.17 402.48 454.547 396.708 454.547C391.402 454.547 387.523 457.037 385.071 462.018C382.617 466.998 381.391 474.334 381.391 484.029C381.391 491.324 382.175 497.188 383.744 501.618C386.146 508.381 390.251 511.762 396.056 511.762C400.729 511.761 404.448 509.695 407.219 505.564Z" fill="#2563EB"/>
<path d="M435.208 467.339V460.443C441.704 459.81 446.233 458.753 448.8 457.27C451.364 455.788 453.279 452.282 454.546 446.751H461.642V518.006H452.047V467.338L435.208 467.339Z" fill="#2563EB"/>
<path d="M494.97 499.769C495.57 504.899 497.951 508.447 502.116 510.413C504.248 511.412 506.714 511.912 509.512 511.912C514.842 511.912 518.789 510.213 521.355 506.814C523.919 503.417 525.203 499.653 525.203 495.522C525.203 490.525 523.679 486.661 520.631 483.929C517.583 481.197 513.927 479.831 509.663 479.831C506.564 479.831 503.908 480.431 501.693 481.63C499.477 482.829 497.587 484.495 496.021 486.627L488.226 486.177L493.674 447.652H530.849V456.346H500.418L497.369 476.234C499.035 474.968 500.617 474.019 502.116 473.385C504.781 472.286 507.863 471.737 511.36 471.737C517.922 471.737 523.486 473.852 528.049 478.083C532.613 482.313 534.895 487.677 534.895 494.173C534.895 500.936 532.804 506.899 528.624 512.062C524.443 517.226 517.772 519.807 508.611 519.807C502.781 519.807 497.626 518.165 493.146 514.885C488.666 511.605 486.158 506.566 485.625 499.77L494.97 499.769Z" fill="#2563EB"/>
</svg>
