<svg width="442" height="586" viewBox="0 0 442 586" fill="none" xmlns="http://www.w3.org/2000/svg">
<path fill-rule="evenodd" clip-rule="evenodd" d="M424.695 585.145H17.1402C7.61845 585.145 0.00134877 577.526 0.00134877 568.005L0 17.1388C0 7.6171 7.61848 0 17.1402 0H424.218C433.742 0 441.359 7.61847 441.359 17.1388V568.005C441.835 577.527 433.742 585.145 424.695 585.145ZM17.1402 13.8104C15.7121 13.8104 13.8075 15.2385 13.8075 17.1432V568.006C13.8075 569.91 15.7121 571.34 17.1402 571.34L424.219 571.338C426.123 571.338 427.553 569.434 427.553 568.006V17.1397C427.553 15.2365 426.123 13.807 424.219 13.807L17.1402 13.8104Z" fill="#2563EB"/>
<path fill-rule="evenodd" clip-rule="evenodd" d="M362.322 147.12H79.5108C75.7016 147.12 72.8453 144.264 72.8453 140.455V62.8487C72.8453 59.0395 75.7016 56.1832 79.5108 56.1832H362.322C366.132 56.1832 368.988 59.0395 368.988 62.8487V139.98C369.464 143.789 366.132 147.12 362.322 147.12ZM86.6529 133.314H355.657V69.9891H86.6529V133.314Z" fill="#2563EB"/>
<path fill-rule="evenodd" clip-rule="evenodd" d="M356.134 221.395H88.0826C79.2465 221.395 79.2465 208.064 88.0826 208.064L356.61 208.062C365.587 208.062 365.394 221.395 356.134 221.395Z" fill="#2563EB"/>
<path fill-rule="evenodd" clip-rule="evenodd" d="M356.134 298.05H315.188C306.352 298.05 306.352 284.719 315.188 284.719L356.134 284.717C364.971 284.717 364.968 298.05 356.134 298.05ZM261.863 298.05H88.0826C79.2465 298.05 79.2465 284.719 88.0826 284.719L261.863 284.717C270.7 284.717 270.699 298.05 261.863 298.05Z" fill="#2563EB"/>
<path fill-rule="evenodd" clip-rule="evenodd" d="M356.134 375.179H315.188C306.352 375.179 306.352 361.848 315.188 361.848L356.134 361.847C364.971 361.847 364.968 375.179 356.134 375.179ZM261.863 375.179H88.0826C79.2465 375.179 79.2465 361.848 88.0826 361.848L261.863 361.847C270.7 361.847 270.699 375.179 261.863 375.179Z" fill="#2563EB"/>
<path fill-rule="evenodd" clip-rule="evenodd" d="M356.134 451.832H88.0826C79.2465 451.832 79.2465 438.501 88.0826 438.501H356.61C365.587 438.501 365.395 451.832 356.134 451.832Z" fill="#2563EB"/>
<path fill-rule="evenodd" clip-rule="evenodd" d="M356.134 528.488H88.0826C79.2465 528.488 79.2465 515.157 88.0826 515.157H356.61C365.587 515.157 365.395 528.488 356.134 528.488Z" fill="#2563EB"/>
</svg>
