<svg width="341" height="154" viewBox="0 0 341 154" fill="none" xmlns="http://www.w3.org/2000/svg">
<g clip-path="url(#clip0_6_35)">
<path fill-rule="evenodd" clip-rule="evenodd" d="M22.1094 98.8906H15.4271V105.188C16.1875 105.604 16.9844 105.813 17.8229 105.813C19.1198 105.813 20.5469 104.974 22.1094 103.297V98.8906ZM22.1094 106.995C20.9583 107.911 19.724 108.37 18.4115 108.37C17.5208 108.37 16.4219 107.781 15.1146 106.599C14.9531 107.417 14.6354 108.057 14.1667 108.552C13.6979 109.031 13.0677 109.354 12.2812 109.51L17.7031 115.01L16.2865 116.193L11.6927 111.078C10.7448 110.031 9.95312 109.005 9.30729 107.995C8.67187 106.984 8.34895 106.047 8.34895 105.188C8.34895 104.792 8.5052 104.464 8.8177 104.203C9.13541 103.943 9.5052 103.807 9.92187 103.807C10.1667 103.807 10.6302 104.01 11.2969 104.391C11.6927 104.391 11.8854 104.135 11.8854 103.615V98.8906H7.4427L5.67187 95.75H28.3958L30.1667 98.8906H25.6458V115.406L22.1094 113.047V106.995ZM34.5781 126.021L33 126.609C31.7187 124.37 30.3437 122.635 28.875 121.385C27.4062 120.156 26.0312 119.531 24.75 119.531C24.0208 119.531 23.4219 119.76 22.9271 120.214C22.4375 120.661 22.1927 121.219 22.1927 121.891C22.1927 122.313 22.3437 122.682 22.6615 122.995C22.974 123.313 23.3437 123.464 23.7604 123.464C25.0469 123.464 26.0312 123.078 26.7135 122.292L28.2812 124.255C27.2083 125.302 26.1615 125.828 25.1354 125.828C23.7865 125.828 22.6667 125.323 21.7708 124.323C20.8698 123.318 20.4219 122.115 20.4219 120.714C20.4219 119.708 20.776 118.828 21.474 118.089C22.1719 117.354 23.0052 116.979 23.9635 116.979C25.2969 116.979 26.8958 117.771 28.7448 119.339C30.599 120.906 32.5417 123.135 34.5781 126.021ZM45.8958 98.8906H42.3594L40.3958 95.75H44.125L45.8958 98.8906ZM45.3073 106.953C44.125 107.609 42.9427 107.938 41.7708 107.938C40.4948 107.938 39.0521 107.281 37.4427 105.974C36.2448 106.385 35.2969 106.969 34.5833 107.693C33.8646 108.422 33.5104 109.156 33.5104 109.906C33.5104 110.703 33.7448 111.391 34.2083 111.979C34.6719 112.557 35.2292 112.849 35.8698 112.849C36.8229 112.849 37.4167 112.656 37.6354 112.26C37.375 111.974 37.2448 111.646 37.2448 111.281C37.2448 110.771 37.4635 110.349 37.8854 110.016C38.3073 109.677 38.8177 109.51 39.4062 109.51C40.125 109.51 40.7344 109.74 41.224 110.188C41.7135 110.646 41.9635 111.203 41.9635 111.87C41.9635 112.885 41.5052 113.677 40.5885 114.224L43.5312 118.354L41.7708 119.146L39.724 114.818C39.3021 114.995 38.6771 115.094 37.8385 115.094C36.2083 115.094 34.5573 114.375 32.8802 112.932C31.2031 111.49 30.3646 110.089 30.3646 108.719C30.3646 107.818 30.7448 106.922 31.4948 106.021C32.25 105.12 33.25 104.385 34.4948 103.807C33.5104 103.13 32.7187 102.385 32.1302 101.563C31.5312 100.755 31.2292 99.9948 31.2292 99.2917C31.2292 98.2135 31.6771 97.3281 32.5729 96.6146C33.4583 95.9115 34.4948 95.5521 35.6719 95.5521C36.8906 95.5521 38.1146 96.1875 39.3385 97.4531C40.5625 98.7135 41.1771 99.9844 41.1771 101.255C41.1771 101.99 40.9219 102.708 40.4062 103.406C39.8958 104.109 39.2396 104.698 38.4271 105.188C39.0104 105.578 39.7344 105.771 40.5885 105.771C42.2656 105.771 43.8333 105.052 45.3073 103.615V106.953ZM35.2812 103.417C36.276 102.964 37.0521 102.432 37.6042 101.849C38.151 101.255 38.4271 100.661 38.4271 100.078C38.4271 99.4948 38.2396 99.0313 37.8802 98.6615C37.5104 98.2917 37.0417 98.1094 36.4635 98.1094C35.776 98.1094 35.1823 98.3125 34.6719 98.7188C34.1615 99.125 33.9062 99.6406 33.9062 100.271C33.9062 101.63 34.3646 102.677 35.2812 103.417ZM57.1406 98.8906H51.2448V105.578H57.1406V98.8906ZM57.1406 108.719H51.2448V110.297C51.2448 110.693 51.1771 110.984 51.0469 111.182C50.9115 111.375 50.7187 111.474 50.4583 111.474C49.8281 111.474 48.8542 110.813 47.526 109.484C46.2031 108.146 45.5417 107.177 45.5417 106.557C45.5417 106.318 45.6406 106.089 45.8281 105.885C46.0156 105.677 46.25 105.578 46.526 105.578H47.7083V98.8906H44.5208L42.75 95.75H63.4271L65.1979 98.8906H60.6771V115.406L57.1406 113.047V108.719ZM73.1562 120.87V120.203C74.3385 119.693 75.1927 119.031 75.724 118.219C76.2552 117.422 76.5156 116.604 76.5156 115.76C76.5156 115.589 76.4896 115.464 76.4219 115.365C76.3437 115.271 76.2708 115.229 76.2083 115.229C76.1406 115.229 76.0469 115.266 75.9323 115.349C75.6302 115.521 75.2604 115.604 74.8281 115.604C74.2292 115.604 73.7031 115.375 73.2708 114.906C72.8281 114.443 72.6042 113.885 72.6042 113.266C72.6042 112.594 72.8594 112.005 73.3646 111.495C73.8646 110.984 74.4844 110.724 75.2031 110.724C76.0781 110.724 76.8229 111.063 77.4427 111.745C78.0573 112.417 78.3698 113.339 78.3698 114.521C78.3698 115.979 77.9323 117.266 77.0625 118.385C76.1875 119.521 74.8854 120.344 73.1562 120.87ZM104.781 105.188C104.547 105.052 104.151 104.99 103.604 104.99C102.859 104.99 102.099 105.354 101.323 106.089C100.552 106.828 99.8698 107.828 99.2812 109.115L96.3281 107.156C96.3542 107.021 96.6198 106.432 97.1146 105.385C96.6875 104.719 95.9687 104.391 94.9531 104.391C94.1146 104.391 93.3958 104.688 92.7917 105.255C92.1875 105.828 91.8854 106.526 91.8854 107.349C91.8854 110.125 93.3698 112.547 96.3281 114.62L95.349 115.802C90.8958 112.682 88.6667 109.396 88.6667 105.974C88.6667 104.599 89.125 103.432 90.0312 102.484C90.9427 101.531 92.0625 101.052 93.3854 101.052C94.7448 101.052 96.2552 102.042 97.9062 104.01C99.0312 102.432 100.276 101.646 101.635 101.646C102.818 101.646 103.865 102.109 104.781 103.021V98.8906H87.1719L85.401 95.75H111.078L112.844 98.8906H108.318V115.406L104.781 113.635V105.188ZM124.833 98.8906H117.875C117.375 98.8906 117 99.0313 116.75 99.2917C116.505 99.5521 116.375 99.9427 116.375 100.464C116.375 101.161 116.745 101.823 117.484 102.432C118.531 102.172 119.411 102.042 120.115 102.042L121.297 104.99C119.948 104.99 118.786 105.245 117.828 105.745C116.859 106.25 116.375 106.854 116.375 107.542C116.375 107.953 116.609 108.281 117.073 108.536C117.542 108.792 118.036 108.922 118.542 108.922C120.635 108.922 122.74 107.875 124.833 105.771V98.8906ZM124.833 110.297C123.245 111.609 121.677 112.26 120.115 112.26C118.724 112.26 117.297 111.531 115.828 110.057C114.365 108.589 113.625 107.161 113.625 105.771C113.625 104.641 114.349 103.719 115.792 103.021C114.807 102.646 114.068 102.219 113.578 101.729C113.089 101.255 112.839 100.724 112.839 100.156C112.839 99.6563 112.974 99.2396 113.234 98.8906H111.464L109.693 95.75H131.125L132.891 98.8906H128.375V115.406L124.833 113.245V110.297ZM114.807 119.729L115.792 118.943C116.906 120.531 118.271 121.781 119.885 122.693C121.51 123.599 123.151 124.052 124.828 124.052C126 124.052 127.01 123.698 127.87 122.995C128.729 122.286 129.156 121.396 129.156 120.323C129.156 120.036 129.031 119.797 128.776 119.615C128.521 119.432 128.187 119.339 127.781 119.339C126.932 119.339 126.078 119.927 125.224 121.109L122.865 118.943C124.047 117.771 125.224 117.177 126.406 117.177C127.495 117.177 128.583 117.719 129.677 118.818C130.766 119.917 131.318 121.005 131.318 122.089C131.318 123.339 130.776 124.391 129.693 125.281C128.615 126.161 127.318 126.609 125.818 126.609C123.891 126.609 121.948 125.995 119.984 124.766C118.026 123.531 116.302 121.854 114.807 119.729ZM156.906 98.8906H153.37V106.76C153.37 107.573 152.896 108.26 151.943 108.839C150.995 109.417 149.828 109.703 148.453 109.703L147.281 107.349C147.542 107.448 147.802 107.505 148.062 107.505C148.479 107.505 148.885 107.37 149.26 107.094C149.641 106.818 149.828 106.443 149.828 105.974V98.8906H145.115V107.938C145.115 108.63 145.354 109.344 145.844 110.057C146.328 110.786 146.87 111.323 147.474 111.672L153.37 115.214C154.021 115.604 154.646 116.109 155.24 116.745C155.828 117.375 156.125 117.911 156.125 118.354C156.125 118.719 155.943 119.146 155.594 119.615C155.24 120.083 154.76 120.521 154.156 120.911L151.01 118.552C151.797 118.078 152.193 117.552 152.193 116.979C152.193 116.615 151.891 116.172 151.297 115.661C150.703 115.151 150.078 114.729 149.443 114.422L144.328 111.87C143.646 111.531 143.021 111.01 142.443 110.328C141.865 109.635 141.578 108.974 141.578 108.328V98.8906H139.297L137.526 95.75H155.135L156.906 98.8906ZM168.583 105.974C166.312 104.391 164.417 103.615 162.885 103.615C161.786 103.615 160.854 103.927 160.094 104.547C159.328 105.161 158.953 105.906 158.953 106.76C158.953 107.464 159.302 108.063 160.005 108.557C160.703 109.063 161.536 109.313 162.49 109.313C164.328 109.313 166.354 108.203 168.583 105.974ZM168.385 109.906C167.536 110.625 166.719 111.161 165.932 111.521C165.146 111.885 164.391 112.063 163.672 112.063C162.172 112.063 160.656 111.328 159.109 109.865C157.568 108.391 156.792 106.969 156.792 105.578C156.792 104.224 157.302 103.073 158.328 102.109C159.365 101.146 160.62 100.661 162.099 100.661C164.312 100.661 166.406 101.839 168.385 104.203V98.8906H155.531L153.76 95.75H174.682L176.443 98.8906H171.922V115.406L168.385 113.047V109.906ZM172.552 92.0104L170.078 94.4896L167.635 92.0104L170.078 89.5781L172.552 92.0104ZM203.255 98.8906H197.359V105.578H203.255V98.8906ZM203.255 108.719H197.359V110.297C197.359 110.693 197.292 110.984 197.161 111.182C197.031 111.375 196.833 111.474 196.573 111.474C195.943 111.474 194.969 110.813 193.641 109.484C192.318 108.146 191.656 107.177 191.656 106.557C191.656 106.318 191.755 106.089 191.943 105.885C192.13 105.677 192.365 105.578 192.641 105.578H193.823V98.8906H190.635L188.865 95.75H209.542L211.312 98.8906H206.792V115.406L203.255 113.047V108.719ZM215.365 100.859C216.135 100.859 216.786 100.651 217.318 100.245C217.849 99.8281 218.115 99.3177 218.115 98.7031C218.115 98.1927 217.927 97.7656 217.552 97.4323C217.182 97.099 216.714 96.9271 216.151 96.9271C215.573 96.9271 215.099 97.1615 214.714 97.6302C214.333 98.0885 214.146 98.6146 214.146 99.1927C214.146 99.7135 214.276 100.125 214.542 100.417C214.802 100.714 215.078 100.859 215.365 100.859ZM223.812 109.906C221.526 111.474 219.687 112.26 218.312 112.26C216.906 112.26 215.479 111.646 214.016 110.396C212.552 109.161 211.823 107.953 211.823 106.76C211.823 105.99 212.12 105.26 212.703 104.583C213.286 103.917 214.036 103.458 214.969 103.219C213.87 102.812 212.969 102.219 212.281 101.438C211.583 100.661 211.234 99.8125 211.234 98.8906C211.234 97.8854 211.63 97.0104 212.406 96.2708C213.187 95.5365 214.104 95.1563 215.167 95.1563C216.307 95.1563 217.276 95.5052 218.083 96.1927C218.891 96.8802 219.297 97.7135 219.297 98.7031C219.297 99.625 218.948 100.417 218.266 101.063C217.573 101.714 216.74 102.042 215.755 102.042C215.875 102.266 216.24 102.453 216.849 102.599C217.458 102.755 218.141 102.828 218.901 102.828L220.469 105.974H218.312C217.25 105.974 216.333 106.182 215.547 106.609C214.771 107.036 214.38 107.542 214.38 108.135C214.38 108.474 214.615 108.792 215.089 109.078C215.562 109.37 216.109 109.51 216.74 109.51C217.786 109.51 218.927 109.187 220.156 108.552C221.391 107.906 222.609 106.979 223.812 105.771V109.906ZM224.286 98.8906H222.245L220.276 95.75H222.516L224.286 98.8906ZM235.453 98.8906H229.359C230.594 100.297 231.208 101.578 231.208 102.745C231.208 103.547 230.771 104.271 229.891 104.911C229.01 105.552 227.88 105.922 226.49 106.016C226.937 106.771 227.464 107.344 228.068 107.719C228.661 108.099 229.349 108.286 230.104 108.286C232.073 108.286 233.854 107.365 235.453 105.495V98.8906ZM235.453 109.745C234.172 110.953 232.755 111.552 231.208 111.552C229.625 111.552 228.12 110.724 226.703 109.078C225.286 107.432 224.276 105.448 223.656 103.141C225.208 103.141 226.37 102.922 227.141 102.474C227.911 102.031 228.302 101.359 228.302 100.464C228.302 99.8854 228.068 99.3646 227.589 98.8906H222.911L221.141 95.75H241.943L243.714 98.8906H238.995V115.406L235.453 113.245V109.745ZM254.755 98.8906H248.859V105.578H254.755V98.8906ZM254.755 108.719H248.859V110.297C248.859 110.693 248.792 110.984 248.667 111.182C248.531 111.375 248.333 111.474 248.073 111.474C247.443 111.474 246.469 110.813 245.141 109.484C243.818 108.146 243.156 107.177 243.156 106.557C243.156 106.318 243.255 106.089 243.443 105.885C243.63 105.677 243.865 105.578 244.141 105.578H245.323V98.8906H242.135L240.365 95.75H261.042L262.813 98.8906H258.292V115.406L254.755 113.047V108.719ZM291.51 110.099C291.51 111.323 291.073 112.339 290.203 113.172C289.328 114.005 288.26 114.422 286.99 114.422C285.339 114.422 283.667 113.792 281.969 112.516C280.271 111.25 278.802 109.521 277.552 107.349L278.542 106.557C279.411 108.063 280.391 109.203 281.479 109.953C282.557 110.703 283.74 111.078 285.021 111.078C285.875 111.078 286.615 110.818 287.234 110.286C287.859 109.76 288.167 109.109 288.167 108.328C288.167 107.911 288.042 107.526 287.771 107.161C287.51 106.797 287.12 106.469 286.599 106.161C285.484 106.557 284.37 106.76 283.255 106.76L281.484 103.807C281.813 103.828 282.13 103.849 282.432 103.849C283.635 103.849 284.693 103.625 285.615 103.172C286.531 102.719 286.99 102.141 286.99 101.453C286.99 100.896 286.859 100.411 286.599 99.9896C286.339 99.5521 285.943 99.1979 285.417 98.8906H277.005L275.234 95.75H292.729L294.495 98.8906H287.771C288.563 99.5521 289.156 100.203 289.542 100.859C289.943 101.521 290.135 102.172 290.135 102.828C290.135 103.786 289.479 104.63 288.167 105.385C289.281 106.036 290.12 106.76 290.677 107.542C291.234 108.328 291.51 109.182 291.51 110.099ZM316.63 98.8906H312.109V115.406L308.573 113.286V112.656C307.021 114.224 305.193 115.01 303.063 115.01C301.453 115.01 299.901 114.464 298.422 113.359C296.932 112.26 296.188 110.979 296.188 109.51C296.188 108.63 296.516 107.979 297.172 107.542C296.333 106.839 295.661 106.089 295.167 105.302C294.672 104.516 294.417 103.823 294.417 103.219C294.417 102.432 294.719 101.781 295.323 101.255C295.927 100.724 296.672 100.464 297.563 100.464H301.495V98.8906H293.12L291.349 95.75H314.859L316.63 98.8906ZM308.573 108.719V98.8906H305.031V103.417H298.938C298.286 103.417 297.792 103.531 297.464 103.76C297.141 103.99 296.974 104.339 296.974 104.792C296.974 105.552 297.302 106.208 297.958 106.76C298.885 106.099 300.589 105.771 303.063 105.771L304.448 108.719C303.828 108.62 303.24 108.557 302.677 108.557C301.354 108.557 300.297 108.792 299.521 109.25C298.734 109.698 298.349 110.24 298.349 110.885C298.349 111.328 298.729 111.703 299.49 112.005C300.25 112.307 301.109 112.453 302.083 112.453C304.693 112.453 306.854 111.214 308.573 108.719ZM327.875 98.8906H321.979V105.578H327.875V98.8906ZM327.875 108.719H321.979V110.297C321.979 110.693 321.911 110.984 321.781 111.182C321.646 111.375 321.453 111.474 321.193 111.474C320.563 111.474 319.589 110.813 318.26 109.484C316.938 108.146 316.276 107.177 316.276 106.557C316.276 106.318 316.375 106.089 316.563 105.885C316.75 105.677 316.984 105.578 317.26 105.578H318.443V98.8906H315.255L313.484 95.75H334.161L335.932 98.8906H331.411V115.406L327.875 113.047V108.719Z" fill="#2563EB"/>
<path fill-rule="evenodd" clip-rule="evenodd" d="M3.89582 84.6719H337.401C336.891 81.2656 340.198 81.2552 329.396 81.4687C279.589 82.4479 220.307 81.4948 170.203 81.4948H21.6406C0.036448 81.4948 4.23957 80.1979 3.89582 84.6719Z" fill="#2563EB"/>
<path fill-rule="evenodd" clip-rule="evenodd" d="M22.5417 2.13022C7.73958 1.32814 3.68749 10.4688 3.73958 24.5938C3.78645 38.3386 3.68749 52.0886 3.76562 65.8281L22.526 65.9531L22.5417 2.13022Z" fill="#2563EB"/>
<path fill-rule="evenodd" clip-rule="evenodd" d="M60.4427 65.9792H79.2083L79.2708 64.9375C79.2708 51.4948 79.2448 38.0469 79.3021 24.6094C79.3594 10.2604 74.8802 2.32813 60.4375 1.92188L60.4427 65.9792Z" fill="#2563EB"/>
<path fill-rule="evenodd" clip-rule="evenodd" d="M50.3958 57.5938L50.4896 1.9948L32.0208 1.98959V57.5886H50.3958V57.5938Z" fill="#2563EB"/>
<path fill-rule="evenodd" clip-rule="evenodd" d="M194.995 1.92188C179.901 2.32813 176.073 10.7917 176.141 25.6719C176.198 39.1042 176.068 52.5469 176.172 65.9792H195.01L194.995 1.92188Z" fill="#2563EB"/>
<path fill-rule="evenodd" clip-rule="evenodd" d="M232.88 65.9167L251.661 65.9219C251.714 52.0261 251.635 38.3125 251.688 24.5938C251.74 10.1979 247.693 1.91668 232.875 2.00522L232.88 65.9167Z" fill="#2563EB"/>
<path fill-rule="evenodd" clip-rule="evenodd" d="M203.891 57.5938H222.078L222.068 1.99481H203.781L203.891 57.5938Z" fill="#2563EB"/>
<path fill-rule="evenodd" clip-rule="evenodd" d="M337.87 18.0677V1.51563C324.427 0.114588 305.245 1.20834 291.177 1.20313C274.12 1.20313 261.818 -0.0937449 261.234 18.4219L337.87 18.0677Z" fill="#2563EB"/>
<path fill-rule="evenodd" clip-rule="evenodd" d="M337.87 66.6302V50.0886L261.234 49.6771C261.88 68.1458 274.401 66.8438 291.177 66.8438C305.995 66.8438 323.37 67.6719 337.87 66.6302Z" fill="#2563EB"/>
<path fill-rule="evenodd" clip-rule="evenodd" d="M261.339 42.6302L318.042 42.6354L318.073 25.4583L261.328 25.4636L261.339 42.6302Z" fill="#2563EB"/>
<path fill-rule="evenodd" clip-rule="evenodd" d="M88.3698 18.4063L164.708 18.1927V1.40627C150.307 0.369808 132.932 1.20835 118.208 1.20314C101.354 1.20314 88.9739 -0.0156085 88.3698 18.4063Z" fill="#2563EB"/>
<path fill-rule="evenodd" clip-rule="evenodd" d="M88.6823 66.7813C104.182 66.7813 119.687 66.7761 135.187 66.7813C152.24 66.7813 164.115 68.4844 164.714 49.8802L88.3698 49.6146L88.6823 66.7813Z" fill="#2563EB"/>
<path fill-rule="evenodd" clip-rule="evenodd" d="M88.5 25.4896L89.9792 25.3854L129.229 25.25C131.188 25.276 133.115 25.2865 135 25.2865C150.792 25.2865 162.656 24.2187 164.583 39.2448L164.526 42.2917C149.026 42.2917 133.526 42.2865 118.021 42.2917C101 42.2917 89.1354 43.9896 88.5 25.4896Z" fill="#2563EB"/>
<mask id="mask0_6_35" style="mask-type:luminance" maskUnits="userSpaceOnUse" x="5" y="134" width="331" height="20">
<path d="M5.33333 134.667H336V154H5.33333V134.667Z" fill="white"/>
</mask>
<g mask="url(#mask0_6_35)">
<path fill-rule="evenodd" clip-rule="evenodd" d="M6.51562 150.469V135.052H10.1094L12.2292 145.568L14.3281 135.052H17.9323V150.469H15.7135L15.7031 138.328L13.3698 150.469H11.0625L8.73958 138.328L8.72916 150.469H6.51562ZM20.2448 135.052H22.6458V150.469H20.2448V135.052ZM32.5 144.781L34.8177 145.714C34.4635 147.411 33.8698 148.667 33.0417 149.495C32.2135 150.318 31.1667 150.724 29.8958 150.724C28.3229 150.724 27.026 150.031 26.0156 148.63C25 147.224 24.4948 145.318 24.4948 142.891C24.4948 140.323 25.0052 138.328 26.0208 136.906C27.0417 135.484 28.3802 134.776 30.0417 134.776C31.4896 134.776 32.6667 135.328 33.5729 136.448C34.1146 137.109 34.5156 138.052 34.7865 139.297L32.4167 140.026C32.2812 139.224 31.9844 138.599 31.5417 138.135C31.0937 137.672 30.5573 137.443 29.9219 137.443C29.0417 137.443 28.3281 137.854 27.7812 138.677C27.2344 139.495 26.9583 140.818 26.9583 142.661C26.9583 144.604 27.2292 145.995 27.7656 146.818C28.3073 147.646 29.0104 148.057 29.8698 148.057C30.5052 148.057 31.0573 147.797 31.5156 147.271C31.974 146.745 32.3021 145.917 32.5 144.781ZM36.875 150.469V135.052H41.9115C43.1771 135.052 44.0937 135.193 44.6719 135.469C45.2448 135.745 45.7031 136.24 46.0469 136.943C46.3906 137.656 46.5677 138.464 46.5677 139.375C46.5677 140.531 46.3073 141.49 45.7865 142.24C45.2656 142.995 44.4896 143.469 43.4531 143.667C43.9687 144.057 44.3906 144.49 44.724 144.958C45.0625 145.427 45.5104 146.266 46.0833 147.464L47.526 150.469H44.6667L42.9531 147.104C42.3385 145.911 41.9167 145.156 41.6875 144.844C41.4583 144.536 41.2187 144.318 40.9687 144.203C40.7083 144.089 40.3073 144.031 39.7552 144.031H39.2708V150.469H36.875ZM39.2708 141.578H41.0417C42.1875 141.578 42.901 141.516 43.1875 141.385C43.474 141.26 43.6979 141.042 43.8594 140.734C44.0208 140.427 44.1042 140.036 44.1042 139.573C44.1042 139.052 43.9948 138.641 43.7812 138.318C43.5677 137.995 43.2708 137.797 42.8802 137.714C42.6875 137.677 42.1042 137.661 41.1354 137.661H39.2708V141.578ZM48.3229 142.854C48.3229 141.276 48.5052 139.964 48.8646 138.891C49.1354 138.109 49.5 137.396 49.9687 136.776C50.4375 136.151 50.9427 135.688 51.5 135.385C52.2396 134.979 53.0885 134.776 54.0573 134.776C55.8021 134.776 57.1979 135.479 58.25 136.885C59.2969 138.307 59.8229 140.271 59.8229 142.781C59.8229 145.276 59.3021 147.224 58.2604 148.635C57.2187 150.047 55.8281 150.75 54.0885 150.75C52.3281 150.75 50.9219 150.052 49.8854 148.646C48.8437 147.25 48.3229 145.318 48.3229 142.854ZM50.7865 142.75C50.7865 144.5 51.099 145.823 51.7187 146.724C52.3437 147.63 53.1302 148.083 54.0833 148.083C55.0417 148.083 55.8229 147.63 56.4375 146.74C57.0521 145.844 57.3542 144.5 57.3542 142.708C57.3542 140.938 57.0573 139.62 56.4583 138.75C55.8646 137.88 55.0729 137.443 54.0833 137.443C53.0937 137.443 52.3021 137.885 51.6979 138.766C51.0937 139.646 50.7865 140.974 50.7865 142.75ZM61.6042 147.521H63.8698V149.635C63.8698 150.49 63.8177 151.167 63.7031 151.661C63.5885 152.156 63.375 152.599 63.0625 152.99C62.7448 153.385 62.3437 153.688 61.8646 153.917L61.4219 152.688C61.8802 152.49 62.1979 152.224 62.3958 151.875C62.5833 151.536 62.6875 151.068 62.6979 150.469H61.6042V147.521ZM70.25 145.474L72.5833 145.177C72.724 146.188 73.0052 146.932 73.4323 147.411C73.8594 147.885 74.4375 148.125 75.1615 148.125C75.9271 148.125 76.5052 147.911 76.8958 147.49C77.2865 147.068 77.4792 146.573 77.4792 146C77.4792 145.635 77.3958 145.328 77.2344 145.068C77.0729 144.813 76.7865 144.594 76.3802 144.406C76.099 144.276 75.4635 144.052 74.474 143.734C73.1979 143.318 72.2969 142.807 71.7812 142.198C71.0573 141.349 70.6979 140.313 70.6979 139.089C70.6979 138.302 70.8698 137.557 71.2083 136.875C71.5469 136.193 72.0417 135.672 72.6823 135.313C73.3229 134.953 74.099 134.776 75.0052 134.776C76.4896 134.776 77.6042 135.203 78.3542 136.052C79.1042 136.917 79.4948 138.052 79.5312 139.49L77.1302 139.599C77.0312 138.802 76.8125 138.224 76.4792 137.88C76.1458 137.531 75.6458 137.359 74.9792 137.359C74.2865 137.359 73.75 137.542 73.3594 137.917C73.1094 138.156 72.9792 138.479 72.9792 138.88C72.9792 139.245 73.099 139.552 73.3385 139.818C73.6354 140.151 74.3698 140.495 75.526 140.854C76.6875 141.208 77.5469 141.583 78.099 141.964C78.6562 142.344 79.0937 142.865 79.4062 143.531C79.724 144.193 79.8802 145.01 79.8802 145.984C79.8802 146.87 79.6927 147.698 79.3125 148.469C78.9375 149.24 78.4062 149.813 77.7135 150.188C77.026 150.557 76.1667 150.75 75.1354 150.75C73.6406 150.75 72.4896 150.302 71.6875 149.401C70.8854 148.5 70.4062 147.193 70.25 145.474ZM81.8802 150.469V135.052H85.474L87.5937 145.568L89.6927 135.052H93.2969V150.469H91.0781L91.0677 138.328L88.7344 150.469H86.4323L84.1042 138.328L84.099 150.469H81.8802ZM106.365 150.469H103.781L102.76 146.964H98.0052L97.0208 150.469H94.4844L99.0885 135.052H101.62L106.365 150.469ZM101.984 144.354L100.333 138.651L98.7344 144.354H101.984ZM107.708 150.469V135.182H110.109V147.865H116.047V150.469H107.708ZM117.812 150.469V135.182H120.214V147.865H126.151V150.469H117.812ZM142.625 148.599L141.245 150.88C140.573 150.448 139.927 149.865 139.307 149.109C138.828 149.667 138.318 150.089 137.781 150.354C137.245 150.615 136.604 150.75 135.859 150.75C134.385 150.75 133.276 150.208 132.531 149.13C131.958 148.297 131.672 147.333 131.672 146.245C131.672 145.255 131.896 144.365 132.354 143.578C132.802 142.781 133.484 142.104 134.385 141.521C133.979 140.891 133.672 140.302 133.469 139.729C133.26 139.161 133.161 138.63 133.161 138.125C133.161 137.193 133.448 136.396 134.021 135.75C134.589 135.099 135.411 134.776 136.469 134.776C137.49 134.776 138.286 135.115 138.865 135.792C139.443 136.474 139.729 137.302 139.729 138.286C139.729 138.911 139.589 139.505 139.302 140.057C139.021 140.625 138.448 141.26 137.589 141.964L139.219 144.818C139.411 144.375 139.578 143.781 139.719 143.073L141.771 143.667C141.568 144.615 141.391 145.313 141.24 145.75C141.089 146.188 140.927 146.557 140.755 146.854C141.005 147.161 141.333 147.5 141.74 147.87C142.141 148.24 142.437 148.484 142.625 148.599ZM136.443 140.203L137.052 139.589C137.505 139.135 137.724 138.682 137.724 138.229C137.724 137.854 137.62 137.531 137.401 137.266C137.187 136.995 136.891 136.865 136.521 136.865C136.167 136.865 135.885 136.979 135.677 137.214C135.479 137.453 135.375 137.719 135.375 138.031C135.375 138.396 135.547 138.839 135.891 139.359L136.443 140.203ZM135.557 143.422C135.036 143.766 134.646 144.182 134.391 144.667C134.135 145.151 134.005 145.646 134.005 146.146C134.005 146.781 134.161 147.307 134.484 147.714C134.802 148.109 135.229 148.318 135.766 148.318C136.12 148.318 136.458 148.224 136.786 148.042C137.115 147.859 137.469 147.557 137.854 147.135L135.557 143.422ZM148.661 150.469V135.052H152.255L154.375 145.568L156.474 135.052H160.078V150.469H157.859L157.849 138.328L155.516 150.469H153.214L150.885 138.328L150.88 150.469H148.661ZM162.474 150.469V135.052H171.245V137.661H164.875V141.083H170.797V143.688H164.875V147.865H171.474V150.469H162.474ZM173.51 135.052H177.87C178.854 135.052 179.604 135.151 180.12 135.349C180.812 135.615 181.411 136.089 181.901 136.771C182.401 137.448 182.771 138.281 183.031 139.266C183.286 140.25 183.417 141.469 183.417 142.911C183.417 144.182 183.297 145.271 183.057 146.188C182.76 147.313 182.339 148.219 181.786 148.911C181.375 149.443 180.812 149.849 180.115 150.146C179.583 150.365 178.88 150.469 178 150.469H173.51V135.052ZM175.906 137.661V147.865H177.687C178.349 147.865 178.828 147.818 179.125 147.719C179.516 147.594 179.833 147.38 180.089 147.078C180.344 146.776 180.552 146.276 180.714 145.589C180.875 144.901 180.953 143.958 180.953 142.766C180.953 141.573 180.875 140.661 180.714 140.026C180.552 139.385 180.323 138.885 180.036 138.531C179.745 138.177 179.38 137.932 178.932 137.807C178.604 137.708 177.948 137.661 176.979 137.661H175.906ZM185.375 135.052H187.771V150.469H185.375V135.052ZM190.052 135.052H192.453V143.406C192.453 144.734 192.479 145.594 192.542 145.984C192.641 146.609 192.88 147.125 193.26 147.5C193.646 147.891 194.167 148.083 194.828 148.083C195.5 148.083 196.005 147.901 196.349 147.542C196.687 147.177 196.896 146.734 196.964 146.208C197.031 145.677 197.068 144.807 197.068 143.589V135.052H199.469V143.161C199.469 145.01 199.401 146.323 199.271 147.089C199.141 147.849 198.906 148.495 198.557 149.026C198.214 149.552 197.75 149.969 197.172 150.276C196.589 150.594 195.833 150.75 194.901 150.75C193.771 150.75 192.917 150.583 192.339 150.24C191.755 149.901 191.292 149.458 190.953 148.911C190.615 148.37 190.396 147.802 190.286 147.203C190.13 146.318 190.052 145.01 190.052 143.281V135.052ZM201.969 150.469V135.052H205.557L207.682 145.568L209.781 135.052H213.38V150.469H211.167L211.156 138.328L208.823 150.469H206.516L204.193 138.328L204.182 150.469H201.969ZM220.375 150.469V135.052H229.146V137.661H222.776V141.083H228.698V143.688H222.776V147.865H229.375V150.469H220.375ZM231.411 150.469V135.052H233.734L238.609 145.385V135.052H240.823V150.469H238.427L233.63 140.339V150.469H231.411ZM246.021 150.469V137.661H242.516V135.052H251.911V137.661H248.422V150.469H246.021ZM253.464 150.469V135.052H262.234V137.661H255.865V141.083H261.786V143.688H255.865V147.865H262.464V150.469H253.464ZM264.5 150.469V135.052H269.536C270.802 135.052 271.719 135.193 272.297 135.469C272.87 135.745 273.328 136.24 273.672 136.943C274.021 137.656 274.193 138.464 274.193 139.375C274.193 140.531 273.932 141.49 273.411 142.24C272.891 142.995 272.115 143.469 271.078 143.667C271.594 144.057 272.016 144.49 272.349 144.958C272.687 145.427 273.141 146.266 273.708 147.464L275.151 150.469H272.292L270.578 147.104C269.964 145.911 269.542 145.156 269.313 144.844C269.089 144.536 268.844 144.318 268.594 144.203C268.339 144.089 267.932 144.031 267.38 144.031H266.896V150.469H264.5ZM266.896 141.578H268.667C269.813 141.578 270.526 141.516 270.813 141.385C271.099 141.26 271.323 141.042 271.484 140.734C271.646 140.427 271.729 140.036 271.729 139.573C271.729 139.052 271.62 138.641 271.406 138.318C271.193 137.995 270.896 137.797 270.51 137.714C270.312 137.677 269.729 137.661 268.766 137.661H266.896V141.578ZM276.448 150.469V135.052H280.281C281.734 135.052 282.682 135.13 283.12 135.281C283.797 135.516 284.365 136.021 284.823 136.797C285.281 137.563 285.51 138.573 285.51 139.797C285.51 140.745 285.38 141.536 285.115 142.182C284.854 142.833 284.521 143.333 284.115 143.708C283.708 144.073 283.297 144.318 282.875 144.432C282.307 144.583 281.479 144.656 280.396 144.656H278.844V150.469H276.448ZM278.844 137.661V142.052H280.151C281.089 142.052 281.714 141.969 282.031 141.807C282.349 141.646 282.599 141.391 282.776 141.047C282.953 140.703 283.047 140.302 283.047 139.844C283.047 139.281 282.917 138.818 282.667 138.453C282.411 138.089 282.099 137.854 281.708 137.766C281.427 137.698 280.854 137.661 279.995 137.661H278.844ZM287.479 150.469V135.052H292.516C293.781 135.052 294.703 135.193 295.276 135.469C295.854 135.745 296.313 136.24 296.656 136.943C297 137.656 297.177 138.464 297.177 139.375C297.177 140.531 296.917 141.49 296.396 142.24C295.87 142.995 295.094 143.469 294.057 143.667C294.573 144.057 295 144.49 295.333 144.958C295.667 145.427 296.12 146.266 296.688 147.464L298.135 150.469H295.276L293.557 147.104C292.943 145.911 292.521 145.156 292.292 144.844C292.068 144.536 291.828 144.318 291.573 144.203C291.318 144.089 290.917 144.031 290.365 144.031H289.875V150.469H287.479ZM289.875 141.578H291.651C292.797 141.578 293.51 141.516 293.797 141.385C294.078 141.26 294.307 141.042 294.469 140.734C294.63 140.427 294.708 140.036 294.708 139.573C294.708 139.052 294.599 138.641 294.391 138.318C294.177 137.995 293.875 137.797 293.49 137.714C293.297 137.677 292.714 137.661 291.745 137.661H289.875V141.578ZM299.344 135.052H301.745V150.469H299.344V135.052ZM303.396 145.474L305.729 145.177C305.87 146.188 306.151 146.932 306.578 147.411C307.005 147.885 307.578 148.125 308.307 148.125C309.073 148.125 309.651 147.911 310.042 147.49C310.427 147.068 310.625 146.573 310.625 146C310.625 145.635 310.542 145.328 310.38 145.068C310.214 144.813 309.927 144.594 309.521 144.406C309.245 144.276 308.609 144.052 307.615 143.734C306.339 143.318 305.443 142.807 304.927 142.198C304.203 141.349 303.844 140.313 303.844 139.089C303.844 138.302 304.01 137.557 304.354 136.875C304.693 136.193 305.188 135.672 305.828 135.313C306.469 134.953 307.24 134.776 308.151 134.776C309.63 134.776 310.75 135.203 311.495 136.052C312.245 136.917 312.635 138.052 312.677 139.49L310.276 139.599C310.177 138.802 309.958 138.224 309.625 137.88C309.292 137.531 308.786 137.359 308.12 137.359C307.432 137.359 306.891 137.542 306.5 137.917C306.25 138.156 306.125 138.479 306.125 138.88C306.125 139.245 306.245 139.552 306.479 139.818C306.781 140.151 307.51 140.495 308.672 140.854C309.833 141.208 310.693 141.583 311.245 141.964C311.802 142.344 312.234 142.865 312.552 143.531C312.865 144.193 313.021 145.01 313.021 145.984C313.021 146.87 312.833 147.698 312.458 148.469C312.078 149.24 311.547 149.813 310.859 150.188C310.172 150.557 309.307 150.75 308.281 150.75C306.781 150.75 305.635 150.302 304.833 149.401C304.031 148.5 303.552 147.193 303.396 145.474ZM315.057 150.469V135.052H323.828V137.661H317.458V141.083H323.38V143.688H317.458V147.865H324.057V150.469H315.057ZM325.464 145.474L327.797 145.177C327.938 146.188 328.219 146.932 328.646 147.411C329.073 147.885 329.651 148.125 330.375 148.125C331.141 148.125 331.719 147.911 332.109 147.49C332.495 147.068 332.693 146.573 332.693 146C332.693 145.635 332.609 145.328 332.448 145.068C332.286 144.813 332 144.594 331.589 144.406C331.313 144.276 330.677 144.052 329.682 143.734C328.406 143.318 327.51 142.807 326.995 142.198C326.271 141.349 325.911 140.313 325.911 139.089C325.911 138.302 326.083 137.557 326.422 136.875C326.76 136.193 327.255 135.672 327.896 135.313C328.536 134.953 329.307 134.776 330.219 134.776C331.698 134.776 332.818 135.203 333.563 136.052C334.313 136.917 334.703 138.052 334.745 139.49L332.344 139.599C332.245 138.802 332.026 138.224 331.693 137.88C331.359 137.531 330.854 137.359 330.188 137.359C329.5 137.359 328.958 137.542 328.568 137.917C328.323 138.156 328.193 138.479 328.193 138.88C328.193 139.245 328.313 139.552 328.547 139.818C328.849 140.151 329.578 140.495 330.74 140.854C331.901 141.208 332.76 141.583 333.313 141.964C333.87 142.344 334.307 142.865 334.62 143.531C334.932 144.193 335.094 145.01 335.094 145.984C335.094 146.87 334.901 147.698 334.526 148.469C334.151 149.24 333.615 149.813 332.927 150.188C332.24 150.557 331.38 150.75 330.349 150.75C328.854 150.75 327.703 150.302 326.901 149.401C326.099 148.5 325.62 147.193 325.464 145.474Z" fill="#2563EB"/>
</g>
</g>
<defs>
<clipPath id="clip0_6_35">
<rect width="340.133" height="154" fill="white"/>
</clipPath>
</defs>
</svg>
