<svg width="16" height="16" viewBox="0 0 16 16" fill="none" xmlns="http://www.w3.org/2000/svg">
<path d="M4.48659 13.1333C5.03325 12.5466 5.86659 12.5933 6.34659 13.2333L7.01992 14.1333C7.55992 14.8466 8.43325 14.8466 8.97325 14.1333L9.64659 13.2333C10.1266 12.5933 10.9599 12.5466 11.5066 13.1333C12.6933 14.4 13.6599 13.98 13.6599 12.2066V4.69331C13.6666 2.00665 13.0399 1.33331 10.5199 1.33331H5.47992C2.95992 1.33331 2.33325 2.00665 2.33325 4.69331V12.2C2.33325 13.98 3.30659 14.3933 4.48659 13.1333Z" stroke="#001F4D" stroke-linecap="round" stroke-linejoin="round"/>
<path d="M5.3973 7.33333H5.40329" stroke="#001F4D" stroke-width="1.33333" stroke-linecap="round" stroke-linejoin="round"/>
<path d="M7.26562 7.33331H10.9323" stroke="#001F4D" stroke-linecap="round" stroke-linejoin="round"/>
<path d="M5.3973 4.66665H5.40329" stroke="#001F4D" stroke-width="1.33333" stroke-linecap="round" stroke-linejoin="round"/>
<path d="M7.26562 4.66669H10.9323" stroke="#001F4D" stroke-linecap="round" stroke-linejoin="round"/>
</svg>
