<svg width="640" height="459" viewBox="0 0 640 459" fill="none" xmlns="http://www.w3.org/2000/svg">
<g clip-path="url(#clip0_6_33)">
<path d="M260.6 43H12C5.4 43 0 48.4 0 55V98.1C0 104.7 5.4 110.1 12 110.1H97.1V351C97.1 357.6 102.5 363 109.1 363H163.4C170 363 175.4 357.6 175.4 351V110.1H260.5C267.1 110.1 272.5 104.7 272.5 98.1V55C272.6 48.4 267.2 43 260.6 43ZM640 350L616 54C615.5 47.8 610.3 43 604 43H538.6C533.5 43 528.9 46.3 527.3 51.1L483.5 178.2C476.3 198.8 467.4 231 467.4 231H466.5C466.5 231 457.6 198.8 450.4 178.2L406.6 51.1C404.9 46.3 400.4 43 395.3 43H329.9C323.7 43 318.5 47.8 317.9 54L293.5 350C292.9 357 298.4 363 305.5 363H360C366.3 363 371.5 358.1 372 351.8L381.1 218.9C382.9 194.7 381.1 165.2 381.1 165.2H382C382 165.2 392.7 198.8 399.9 218.9L430.6 303.6C432.3 308.3 436.8 311.5 441.9 311.5H492.2C497.3 311.5 501.8 308.3 503.5 303.6L534.2 218.9C541.4 198.8 552.1 165.2 552.1 165.2H553C553 165.2 551.2 194.7 553 218.9L562.1 351.8C562.5 358.1 567.8 363 574.1 363H628C635 363 640.5 357 640 350Z" fill="#2563EB"/>
</g>
<defs>
<clipPath id="clip0_6_33">
<rect width="640" height="512" fill="white" transform="translate(0 -53)"/>
</clipPath>
</defs>
</svg>
