<svg xmlns="http://www.w3.org/2000/svg" viewBox="0 0 750 500"><g id="freepik--background-simple--inject-115"><g><path d="M256.971,54.258c-41.583,4.21-81.682,13.173-117.246,27.232-41.916,16.57-84.743,42.385-72.094,76.149,23.353,62.335,135.384,63.47,113.015,105.383-25.337,47.476-8.345,103.164,105.346,118.651,215.942,29.414,476.983-142.692,403.666-237.263-45.644-58.876-211.889-112.505-432.688-90.152Z" style="fill:#359FFA;"></path><path d="M256.971,54.258c-41.583,4.21-81.682,13.173-117.246,27.232-41.916,16.57-84.743,42.385-72.094,76.149,23.353,62.335,135.384,63.47,113.015,105.383-25.337,47.476-8.345,103.164,105.346,118.651,215.942,29.414,476.983-142.692,403.666-237.263-45.644-58.876-211.889-112.505-432.688-90.152Z" style="fill:#fff; opacity:.9;"></path></g></g><g id="freepik--Shadow_3--inject-115"><path d="M591.809,450.672c0,6.71-93.517,12.149-208.875,12.149s-208.875-5.439-208.875-12.149,93.516-12.149,208.875-12.149,208.875,5.439,208.875,12.149Z" style="fill:#f5f5f5;"></path></g><g id="freepik--Tool--inject-115"><g><polygon points="108.579 121.007 94.734 98.134 111.574 72.406 138.833 76.443 165.423 120.701 159.53 129.386 108.579 121.007" style="fill:#e6e6e6;"></polygon><polygon points="85.391 91.846 102.233 66.104 111.64 72.494 94.8 98.222 85.391 91.846" style="fill:#359FFA;"></polygon><rect x="139.339" y="83.079" width="2.22" height="53.6" transform="translate(-29.348 164.362) rotate(-55.827)" style="fill:#263238;"></rect><path d="M118.601,101.064c-2.318-1.577-2.919-4.734-1.342-7.052,1.577-2.318,4.734-2.919,7.052-1.342,2.318,1.577,2.919,4.734,1.342,7.052l-.005,.008c-1.579,2.312-4.731,2.909-7.046,1.334Z" style="fill:#263238;"></path></g></g><g id="freepik--Device--inject-115"><g><path d="M205.397,138.95l3.329,5.549c.408,.707,1.171,1.133,1.987,1.11,1.712-.128,3.431-.102,5.138,.078,1.687,.355,1.887-6.659,1.887-6.659l-12.341-.078Z" style="fill:#fdaa6d;"></path><path d="M202.889,139.028c1.341-1.931,3.542-3.084,5.893-3.085h3.995l4.961,3.085h-14.849Z" style="fill:#fdaa6d;"></path><g><rect x="190.66" y="90.904" width="370.649" height="267.86" rx="19.724" ry="19.724" style="fill:#263238;"></rect><rect x="190.66" y="90.904" width="370.649" height="267.86" rx="19.724" ry="19.724" style="fill:#fff; opacity:.3;"></rect></g><g><rect x="205.497" y="105.598" width="340.824" height="234.706" rx="11.672" ry="11.672" style="fill:#359FFA;"></rect><path d="M217.32,105.596h317.479c6.442,0,11.673,5.23,11.673,11.673v211.362c0,6.442-5.23,11.672-11.672,11.672H217.32c-6.442,0-11.672-5.23-11.672-11.672V117.268c0-6.442,5.23-11.672,11.672-11.672Z" style="fill:#fff; opacity:.7;"></path><g><path d="M212.785,105.598h323.249c5.678,0,10.288,4.61,10.288,10.288v7.345H205.497v-10.345c0-4.022,3.266-7.288,7.288-7.288Z" style="fill:#359FFA;"></path><path d="M533.196,114.414c0,2.069-1.677,3.747-3.747,3.747s-3.746-1.677-3.746-3.747,1.677-3.747,3.746-3.747,3.747,1.677,3.747,3.747Z" style="fill:#fff;"></path><path d="M522.548,114.414c0,2.069-1.677,3.747-3.746,3.747s-3.747-1.677-3.747-3.747,1.677-3.747,3.747-3.747,3.746,1.677,3.746,3.747Z" style="fill:#fff;"></path><circle cx="508.154" cy="114.414" r="3.747" style="fill:#fff;"></circle><g><path d="M294.468,98.245h-29.401c-.276,0-.5-.224-.5-.5s.224-.5,.5-.5h29.401c.276,0,.5,.224,.5,.5s-.224,.5-.5,.5Z" style="fill:#359FFA;"></path><path d="M308.689,98.245h-6.123c-.276,0-.5-.224-.5-.5s.224-.5,.5-.5h6.123c.276,0,.5,.224,.5,.5s-.224,.5-.5,.5Z" style="fill:#359FFA;"></path></g></g></g><g><g><path d="M339.975,357.822l-8.387,72.573h-20.713c-4.494,0-8.138,4.957-8.138,11.072v.795h166.058c0-7.266-4.36-13.13-9.7-13.041-8.041,.133-18.112,.218-17.809-.195,.503-.685-11.073-72.116-10.402-71.203,.671,.913-90.911,0-90.911,0Z" style="fill:#263238;"></path><path d="M339.975,357.822l-8.387,72.573h-20.713c-4.494,0-8.138,4.957-8.138,11.072v.795h166.058c0-7.266-4.36-13.13-9.7-13.041-8.041,.133-18.112,.218-17.809-.195,.503-.685-11.073-72.116-10.402-71.203,.671,.913-90.911,0-90.911,0Z" style="fill:#fff; opacity:.3;"></path></g><polygon points="339.801 359.324 430.996 359.324 432.535 370.045 338.562 370.045 339.801 359.324" style="opacity:.3;"></polygon></g><g><g><path d="M299.005,242.575c0,8.081-6.822,12.785-19.606,12.785h-26.098v-46.367h24.773c12.784,0,18.746,5.1,18.746,12.122,0,4.305-2.186,7.882-6.425,10.002,5.432,1.987,8.611,5.961,8.611,11.459Zm-30.337-22.653v6.889h7.286c3.511,0,5.1-1.192,5.1-3.444s-1.589-3.444-5.1-3.444h-7.286Zm14.572,20.865c0-2.385-1.722-3.643-5.166-3.643h-9.406v7.286h9.406c3.444,0,5.166-1.259,5.166-3.643Z" style="fill:#359FFA;"></path><path d="M324.379,243.701h-4.239v11.659h-15.632v-46.367h22.323c12.916,0,21.13,6.756,21.13,17.487,0,6.69-3.18,11.724-8.744,14.572l9.737,14.308h-16.692l-7.882-11.659Zm1.457-22.653h-5.697v10.863h5.697c4.305,0,6.359-2.054,6.359-5.432s-2.054-5.432-6.359-5.432Z" style="fill:#359FFA;"></path><path d="M385.455,247.278h-17.619l-3.113,8.082h-15.897l20.268-46.367h15.368l20.269,46.367h-16.162l-3.113-8.082Zm-4.306-11.261l-4.504-11.658-4.504,11.658h9.008Z" style="fill:#359FFA;"></path><path d="M452.957,208.992v46.367h-12.851l-17.619-21.064v21.064h-15.235v-46.367h12.85l17.619,21.064v-21.064h15.235Z" style="fill:#359FFA;"></path><path d="M460.512,208.992h22.853c15.5,0,26.164,8.81,26.164,23.183s-10.664,23.184-26.164,23.184h-22.853v-46.367Zm22.19,34.179c6.558,0,11.062-3.908,11.062-10.996s-4.504-10.996-11.062-10.996h-6.558v21.991h6.558Z" style="fill:#359FFA;"></path></g><path d="M359.197,246.718v.429c-.008,.207,.035,.399,.129,.578,.06,.186,.164,.347,.31,.483,.136,.146,.297,.25,.483,.31,.179,.094,.371,.137,.578,.129l.399-.054c.254-.071,.475-.2,.662-.386l.235-.304c.136-.234,.204-.486,.205-.757v-.429c.008-.207-.035-.399-.129-.578-.06-.186-.164-.347-.31-.483-.136-.146-.297-.25-.483-.31-.179-.094-.371-.137-.578-.129l-.399,.054c-.254,.071-.475,.2-.662,.386l-.235,.304c-.136,.234-.204,.486-.205,.757h0Z" style="fill:#359FFA;"></path><g><path d="M515.027,267.966H249.299v-71.548h265.728v71.548Zm-264.728-1h263.728v-69.548H250.299v69.548Z" style="fill:#263238;"></path><rect x="246.641" y="192.736" width="6.317" height="6.316" style="fill:#263238;"></rect><rect x="246.186" y="265.232" width="6.317" height="6.317" style="fill:#263238;"></rect><rect x="380.665" y="193.76" width="6.317" height="6.316" style="fill:#263238;"></rect><rect x="379.776" y="264.308" width="6.316" height="6.316" style="fill:#263238;"></rect><rect x="511.369" y="193.76" width="6.316" height="6.316" style="fill:#263238;"></rect><rect x="511.369" y="264.308" width="6.316" height="6.316" style="fill:#263238;"></rect></g></g></g></g><g id="freepik--Control--inject-115"><g><path d="M578.671,62.975h63.766c2.279,0,4.129,1.85,4.129,4.129v63.766c0,2.279-1.85,4.129-4.129,4.129h-63.766c-2.279,0-4.13-1.85-4.13-4.13v-63.766c0-2.279,1.85-4.129,4.129-4.129Z" style="fill:#359FFA;"></path><path d="M578.671,62.975h63.766c2.279,0,4.129,1.85,4.129,4.129v63.766c0,2.279-1.85,4.129-4.129,4.129h-63.766c-2.279,0-4.13-1.85-4.13-4.13v-63.766c0-2.279,1.85-4.129,4.129-4.129Z" style="fill:#fff; opacity:.4;"></path><path d="M636.067,86.199h-51.693c-2.13,0-3.856-1.726-3.856-3.856h0c0-2.13,1.726-3.856,3.856-3.856h51.693c2.13,0,3.856,1.726,3.856,3.856h0c0,2.13-1.726,3.856-3.856,3.856Z" style="fill:#263238;"></path><path d="M590.894,81.884c0,3.026-2.453,5.478-5.478,5.478s-5.478-2.453-5.478-5.478,2.453-5.478,5.478-5.478,5.478,2.453,5.478,5.478Z" style="fill:#359FFA;"></path><path d="M636.067,102.848h-51.693c-2.13,0-3.856-1.726-3.856-3.856h0c0-2.13,1.726-3.856,3.856-3.856h51.693c2.13,0,3.856,1.726,3.856,3.856h0c0,2.13-1.726,3.856-3.856,3.856Z" style="fill:#263238;"></path><path d="M631.415,98.533c0,3.026-2.453,5.478-5.478,5.478s-5.478-2.453-5.478-5.478,2.453-5.478,5.478-5.478,5.478,2.453,5.478,5.478Z" style="fill:#359FFA;"></path><path d="M636.067,120.355h-51.693c-2.13,0-3.856-1.727-3.856-3.856h0c0-2.13,1.726-3.856,3.856-3.856h51.693c2.13,0,3.856,1.726,3.856,3.856h0c0,2.13-1.726,3.856-3.856,3.856Z" style="fill:#263238;"></path><path d="M609.257,116.039c0,3.026-2.453,5.478-5.478,5.478s-5.478-2.453-5.478-5.478,2.453-5.478,5.478-5.478,5.478,2.453,5.478,5.478Z" style="fill:#359FFA;"></path></g></g><g id="freepik--Shadow_2--inject-115"><rect x="357.228" y="90.55" width="94.741" height="88.686" rx="4.936" ry="4.936" style="opacity:.2;"></rect></g><g id="freepik--Text--inject-115"><g><g><g><rect x="350.314" y="77.945" width="94.741" height="94.583" rx="4.936" ry="4.936" style="fill:#359FFA;"></rect><rect x="350.314" y="77.945" width="94.741" height="94.583" rx="4.936" ry="4.936" style="fill:#fff; opacity:.5;"></rect><path d="M354.941,77.945h85.569c2.509,0,4.546,2.037,4.546,4.546v7.202h-94.741v-7.12c0-2.554,2.073-4.627,4.627-4.627Z" style="fill:#359FFA;"></path></g><g><path d="M435.265,83.986c0,1.374-1.114,2.488-2.488,2.488s-2.488-1.114-2.488-2.488,1.114-2.488,2.488-2.488,2.488,1.114,2.488,2.488Z" style="fill:#fff;"></path><path d="M428.193,83.889c0,1.374-1.114,2.488-2.488,2.488s-2.488-1.114-2.488-2.488,1.114-2.488,2.488-2.488,2.488,1.114,2.488,2.488Z" style="fill:#fff;"></path><path d="M421.121,83.889c0,1.374-1.114,2.488-2.488,2.488s-2.488-1.114-2.488-2.488,1.114-2.488,2.488-2.488,2.488,1.114,2.488,2.488Z" style="fill:#fff;"></path></g></g><path d="M422.059,104.184v13.838h-1.357c-.805-3.192-1.696-5.486-2.677-6.881-.98-1.395-2.325-2.507-4.034-3.337-.956-.452-2.627-.679-5.015-.679h-3.809v39.439c0,2.615,.144,4.248,.434,4.902,.289,.654,.854,1.225,1.697,1.715,.842,.49,1.991,.735,3.45,.735h1.696v1.395h-26.77v-1.395h1.697c1.482,0,2.677-.264,3.582-.792,.653-.351,1.168-.955,1.546-1.809,.276-.604,.414-2.187,.414-4.751v-39.439h-3.694c-3.444,0-5.945,.73-7.504,2.187-2.186,2.036-3.569,4.94-4.147,8.71h-1.433v-13.838h45.924Z" style="fill:#263238;"></path></g></g><g id="freepik--Colors--inject-115"><g><g><g><rect x="261.128" y="63.453" width="70.277" height="70.16" rx="4.936" ry="4.936" style="fill:#359FFA;"></rect><rect x="261.128" y="63.453" width="70.277" height="70.16" rx="4.936" ry="4.936" style="fill:#fff; opacity:.5;"></rect><path d="M265.755,63.453h61.104c2.509,0,4.546,2.037,4.546,4.546v4.168h-70.277v-4.087c0-2.554,2.073-4.627,4.627-4.627Z" style="fill:#359FFA;"></path></g><g><path d="M324.143,67.934c0,1.019-.826,1.846-1.846,1.846s-1.846-.826-1.846-1.846,.826-1.846,1.846-1.846,1.846,.826,1.846,1.846Z" style="fill:#fff;"></path><path d="M318.897,67.862c0,1.019-.826,1.846-1.846,1.846s-1.846-.826-1.846-1.846,.826-1.846,1.846-1.846,1.846,.826,1.846,1.846Z" style="fill:#fff;"></path><path d="M313.651,67.862c0,1.019-.826,1.846-1.846,1.846s-1.846-.826-1.846-1.846,.826-1.846,1.846-1.846,1.846,.826,1.846,1.846Z" style="fill:#fff;"></path></g></g><g><rect x="277.469" y="82.877" width="37.595" height="37.595" style="fill:#fff;"></rect><rect x="278.423" y="83.889" width="35.228" height="35.228" style="fill:#359FFA;"></rect><path d="M296.267,119.627s18.004-15.094,18.004-14.83v14.83h-18.004Z" style="fill:#fff;"></path></g></g></g><g id="freepik--shadow_1--inject-115"><path d="M202.225,156.373h38.376v166.683c0,3.299-2.678,5.977-5.977,5.977h-32.399V156.373h0Z" style="opacity:.2;"></path></g><g id="freepik--Character_1--inject-115"><g><g><path d="M86.55,227.782s3.93,.797,4.408,1.434,7.127,4.675,7.127,4.675l-4.472,8.812-3.338-2.558s-2.884,.708-4.871-.04c-1.986-.747-1.072-11.908-1.072-11.908l2.219-.416Z" style="fill:#fdaa6d;"></path><g><path d="M84.151,229.439s6.57,1.323,7.311,2.856c.741,1.533-1.688,1.45-1.688,1.45,0,0,2.666,.256,2.711,1.403,.053,1.376-2.49,1.278-2.49,1.278,0,0,2.168,.298,2.14,1.321-.03,1.061-2.909,1.154-2.909,1.154,0,0,1.487,.499,1.065,1.198-.422,.699-6.529,1.014-8.344-.103-1.816-1.118-1.425-8.778-.946-10.46,.564-1.981,1.981-2.698,3.671-2.425l-.52,2.33h0Z" style="opacity:.2;"></path><path d="M85.128,241.765l-1.702-.518c-.95-.304-1.545-1.244-1.414-2.232l1.861-13.624,4.642,1.431-.754,13.11c-.053,1.116-1.001,1.978-2.117,1.925-.175-.008-.349-.039-.516-.093Z" style="fill:#263238;"></path><path d="M96.285,224.02c.249-.796,.488-1.58,.702-2.363-1.11-1.604-2.556-2.947-4.237-3.936-.527,1.51-1.051,3.092-1.56,4.721-.509,1.63-.959,3.232-1.364,4.784,1.947,.127,3.899-.168,5.721-.866,.251-.772,.501-1.545,.739-2.34Z" style="fill:#263238;"></path><path d="M93.211,223.077c.617-1.909,1.032-3.878,1.237-5.875l-15.226-4.7-3.506,11.379,15.238,4.711c.941-1.755,1.697-3.604,2.256-5.516Z" style="fill:#359FFA;"></path><path d="M93.211,223.077c.617-1.909,1.032-3.878,1.237-5.875l-15.226-4.7-3.506,11.379,15.238,4.711c.941-1.755,1.697-3.604,2.256-5.516Z" style="fill:#fff; isolation:isolate; opacity:.6;"></path><path d="M83.127,212.681c-.686-.219-17.685-15.996-19.525-16.616-1.84-.619-5.876,6.192-8.656,15.207-2.78,9.015-3.402,16.813-1.405,17.436s24.791-2.943,25.489-2.737,2.394-2.532,3.524-6.206,1.442-6.838,.573-7.084Z" style="fill:#359FFA;"></path><path d="M83.127,212.681c-.686-.219-17.685-15.996-19.525-16.616-1.84-.619-5.876,6.192-8.656,15.207-2.78,9.015-3.402,16.813-1.405,17.436s24.791-2.943,25.489-2.737,2.394-2.532,3.524-6.206,1.442-6.838,.573-7.084Z" style="fill:#fff; isolation:isolate; opacity:.4;"></path><path d="M62.197,213.501c-2.78,9.015-6.66,15.818-8.656,15.207-1.996-.611-1.372-8.373,1.405-17.436,2.777-9.063,6.66-15.818,8.656-15.207,1.996,.611,1.376,8.433-1.405,17.436Z" style="fill:#359FFA;"></path><path d="M57.418,212.005c-.187,.6-.361,1.224-.526,1.775,1.18,1.336,2.597,2.443,4.179,3.264,.402-1.13,.8-2.319,1.185-3.545,.385-1.225,.709-2.447,1.026-3.597-1.769-.21-3.562-.092-5.289,.35-.272,.581-.46,1.169-.575,1.753Z" style="fill:#263238;"></path><path d="M57.418,212.005c-.187,.6-.361,1.224-.526,1.775,1.18,1.336,2.597,2.443,4.179,3.264,.402-1.13,.8-2.319,1.185-3.545,.385-1.225,.709-2.447,1.026-3.597-1.769-.21-3.562-.092-5.289,.35-.272,.581-.46,1.169-.575,1.753Z" style="fill:#fff; isolation:isolate; opacity:.7;"></path></g><g><path d="M83.331,229.354s6.771,1.408,7.512,2.941c.741,1.533-1.688,1.45-1.688,1.45,0,0,2.666,.256,2.711,1.403,.053,1.376-2.49,1.278-2.49,1.278,0,0,2.168,.298,2.14,1.321-.03,1.061-2.909,1.154-2.909,1.154,0,0,1.487,.499,1.065,1.198-.423,.699-6.529,1.014-8.344-.103-1.816-1.118-1.425-8.778-.946-10.46,.564-1.981,1.6-2.943,3.291-2.669l-.34,2.49h0Z" style="fill:#fdaa6d;"></path><path d="M89.151,233.873h-.011l-4.627-.669c-.062-.009-.106-.074-.097-.144,.009-.071,.068-.121,.128-.112l4.627,.668c.062,.009,.106,.074,.097,.144-.008,.067-.059,.115-.117,.113Z" style="opacity:.2;"></path><path d="M89.239,236.549h-.003l-4.495-.289c-.062-.004-.11-.065-.106-.136,.004-.071,.048-.114,.121-.122l4.495,.289c.063,.004,.11,.065,.106,.136-.004,.07-.057,.124-.118,.122Z" style="opacity:.2;"></path></g></g><g><path d="M150.601,427.436s2.73,16.958,4.006,25.037c.422,2.641-9.711,1.199-10.676,.932l-6.015-27.224,12.685,1.254Z" style="fill:#fdaa6d;"></path><g><path d="M136.417,447.879c-1.498,.211-2.963,.189-3.496-.422-.301-.328-.355-.813-.133-1.199,.147-.354,.437-.629,.799-.755,1.853-.744,6.215,1.032,6.404,1.11,.07,.029,.126,.085,.155,.155,.061,.147-.008,.316-.155,.377-1.166,.355-2.362,.6-3.574,.732Zm-2.109-1.987c-.18,.034-.358,.078-.533,.133-.212,.084-.383,.247-.477,.455-.166,.377-.078,.533,0,.621,.644,.688,3.596,.311,5.704-.266-1.494-.608-3.092-.921-4.706-.921l.011-.022Z" style="fill:#359FFA;"></path><path d="M139.869,447.135h-.122c-1.487-.444-4.55-2.586-4.55-3.918,.044-.322,.178-.744,.932-.921,.533-.155,1.106-.087,1.587,.189,1.643,1.032,2.397,4.106,2.397,4.239,.055,.084,.055,.193,0,.277l-.244,.133Zm-2.408-4.139c-.294-.206-.653-.297-1.01-.255h-.178c-.488,.122-.488,.322-.488,.388-.089,.788,2.131,2.519,3.673,3.196-.309-1.288-1.007-2.45-1.998-3.329h0Z" style="fill:#359FFA;"></path><path d="M139.691,445.87c-2.419,3.03-5.338,6.27-13.928,9.689-1.909,.755-.477,5.46,4.373,4.661,4.85-.799,19.488-3.818,26.147-5.749,.1-.011,1.687-1.42,1.354-2.331l-3.895-8.823c-.165-.454-.635-.722-1.11-.633l-11.154,2.075c-.716,.126-1.357,.523-1.787,1.11Z" style="fill:#263238;"></path></g><g style="opacity:.2;"><polygon points="140.513 437.291 137.916 426.182 150.601 427.448 151.944 435.827 140.513 437.291"></polygon></g></g><g><path d="M243.014,396.473s11.531,12.674,17.08,18.733c1.798,2.009-7.469,6.359-8.412,6.659l-19.976-19.455,11.309-5.938Z" style="fill:#fdaa6d;"></path><g style="opacity:.2;"><polygon points="239.973 410.279 231.705 402.41 243.003 396.506 248.719 402.777 239.973 410.279"></polygon></g><g><path d="M242.359,421.432c-1.132,.999-2.364,1.787-3.141,1.565-.43-.108-.743-.479-.777-.921-.078-.389,.015-.793,.255-1.11,1.121-1.676,5.738-2.619,5.937-2.619,.115-.019,.231,.029,.3,.122,.062,.098,.062,.224,0,.322-.77,.962-1.632,1.847-2.575,2.641Zm-2.852-.577c-.137,.122-.263,.256-.377,.399-.135,.185-.187,.418-.144,.644,.078,.399,.233,.511,.355,.511,.91,.233,3.163-1.687,4.606-3.329-1.583,.308-3.091,.922-4.439,1.809v-.033Z" style="fill:#359FFA;"></path><path d="M244.868,418.835l-.111,.056c-1.509,.444-5.26,.322-5.948-.788-.228-.431-.116-.963,.266-1.265,.361-.423,.877-.684,1.432-.721,1.942-.056,4.228,2.131,4.328,2.22,.087,.049,.135,.145,.122,.244l-.089,.255Zm-4.317-2.12c-.361-.002-.71,.133-.977,.377l-.166,.078c-.322,.355-.189,.522-.189,.588,.377,.71,3.152,.943,4.816,.655-.968-.921-2.196-1.522-3.518-1.72l.033,.022Z" style="fill:#359FFA;"></path><path d="M244.87,418.138c-1.113,3.714-2.611,7.81-9.304,14.188-1.489,1.413,1.596,5.244,5.797,2.691,4.201-2.552,16.653-10.818,22.11-15.095,.088-.048,1.034-1.948,.386-2.668l-6.908-6.73c-.323-.359-.858-.432-1.266-.173l-9.572,6.09c-.618,.384-1.063,.992-1.243,1.697Z" style="fill:#263238;"></path></g></g><g><path d="M162.165,270.022l18.754-10.098c2.519,3.707,4.517,6.78,5.56,11.141,1.343,5.571-1.584,15.222-.831,14.813-20.975,11.453-25.237,7.672-25.237,7.672l-6.048,3.918c-9.356,6.048-25.448,3.163-21.774-7.358,3.218-9.356,3.218-21.353,3.218-21.353,12.263,3.463,26.358,1.265,26.358,1.265Z" style="fill:#263238;"></path><path d="M152.387,277.346c-8.013-.477-14.394-2.453-16.547,3.407-12.829,34.926-18.5,70.95-15.46,91.592,1.842,12.152,9.611,61.861,19.599,61.394,3.13-.144,13.029-1.864,13.029-1.864,1.004-1.279,1.364-2.949,.977-4.528-3.807-17.08-10.998-47.511-8.457-63.57,3.318-20.787,19.588-54.303,20.043-66.289,.444-11.642-11.731-20.054-13.185-20.143Z" style="fill:#263238;"></path><path d="M155.384,330.906l7.092-21.885s-4.417-26.735-5.926-24.26c-11.575,18.989-1.165,46.146-1.165,46.146Z" style="isolation:isolate; opacity:.2;"></path><path d="M162.176,270.033c-6.925,3.984-9.4,10.621-7.769,16.647,7.713,28.511,23.894,54.88,37.267,78.885,5.993,10.743,41.329,47.844,45.946,42.028,1.953-2.453,9.877-8.712,9.877-8.712,2.586-8.268-18.678-12.23-63.259-119.248-4.484-10.754-20.809-10.332-22.063-9.6Z" style="fill:#263238;"></path></g><g><path d="M162.476,193.035c.966-.71,25.67-1.243,39.953-1.243v-.144c.69-9.507,3.12-18.806,7.169-27.434l6.048-12.918c1.6-3.479,5.283-5.505,9.078-4.994,1.19,.166,2.35,.506,3.44,1.01l-2.752,.966c.022,1.027-.063,2.054-.255,3.063l-8.368,43.726c.266,1.609-.055,4.051-1.487,7.769-1.687,4.417-26.269,9.677-39.42,10.61-3.862,.266-6.714,.177-7.769-.411-2.331-1.298-5.127-5.327-6.659-9.511-1.487-4.184-1.742-8.523,1.021-10.488Z" style="fill:#359FFA;"></path><path d="M163.674,192.979c.384-.026,.769-.033,1.153-.021,6.402,.205,11.426,5.56,11.221,11.962l10.858,60.107c-4.761,6.548-53.843,25.452-54.853,19.57,4.709-28.075-15.092-75.456-8.281-80.177,20.665-14.716,37.217-11.264,39.903-11.442Z" style="fill:#359FFA;"></path><path d="M95.907,231.525l25.86,6.31s-5.942-27.766,1.417-33.119c7.359-5.353,17.766,47.591,17.766,47.591l-6.651,9.649s-43.093-17.777-43.093-16.929,4.701-13.501,4.701-13.501Z" style="fill:#359FFA;"></path><polygon points="132.053 261.031 126.021 221.518 127.508 259.167 132.053 261.031" style="isolation:isolate; opacity:.2;"></polygon><path d="M163.591,204.493c1.52,4.184,4.317,8.213,6.659,9.511,1.11,.588,4.161,1.848,7.313-.697,1.287,9.555,4.76,26.349,4.76,26.349,0,0-15.114-16.119-18.732-35.163Z" style="isolation:isolate; opacity:.1;"></path></g><g><path d="M193.004,150.314h40.762c1.607,0,2.912,1.305,2.912,2.912v165.099c0,2.415-1.961,4.376-4.376,4.376h-38.526c-1.902,0-3.446-1.544-3.446-3.446V152.988c0-1.476,1.198-2.674,2.674-2.674Z" style="fill:#359FFA;"></path><path d="M193.087,150.314h39.311c2.362,0,4.28,1.918,4.28,4.28v163.878c0,2.334-1.895,4.229-4.229,4.229h-38.59c-1.947,0-3.528-1.581-3.528-3.528V153.071c0-1.521,1.235-2.756,2.756-2.756Z" style="fill:#fff; opacity:.5;"></path><path d="M193.004,150.314h40.949c1.504,0,2.724,1.221,2.724,2.724v7.508h-46.347v-7.559c0-1.476,1.198-2.674,2.674-2.674Z" style="fill:#359FFA;"></path><rect x="197.707" y="170.898" width="13.733" height="13.733" style="fill:#fff; opacity:.5;"></rect><rect x="216.929" y="170.898" width="13.733" height="13.733" style="fill:#fff; opacity:.5;"></rect><rect x="197.707" y="190.603" width="13.733" height="13.733" style="fill:#fff; opacity:.5;"></rect><rect x="216.929" y="190.603" width="13.733" height="13.733" style="fill:#fff; opacity:.5;"></rect><rect x="197.707" y="210.195" width="13.733" height="13.733" style="fill:#fff; opacity:.5;"></rect><rect x="216.929" y="210.195" width="13.733" height="13.733" style="fill:#fff; opacity:.5;"></rect><rect x="197.707" y="229.788" width="13.733" height="13.733" style="fill:#fff; opacity:.5;"></rect><rect x="216.929" y="229.788" width="13.733" height="13.733" style="fill:#fff; opacity:.5;"></rect><rect x="197.707" y="302.549" width="13.733" height="13.733" style="fill:#fff; opacity:.5;"></rect><rect x="216.929" y="302.549" width="13.733" height="13.733" style="fill:#fff; opacity:.5;"></rect><rect x="208.88" y="268.923" width="21.782" height="21.782" style="fill:#fff;"></rect><rect x="197.989" y="256.693" width="21.782" height="21.782" style="fill:#359FFA;"></rect></g><g><path d="M212.227,150.536s1.782,5.697,3.274,6.391c1.492,.695,1.378-1.651,1.378-1.651,0,0,.284,2.573,1.393,2.6,1.331,.033,1.2-2.425,1.2-2.425,0,0,.318,2.092,1.306,2.049,1.025-.044,1.074-2.827,1.074-2.827,0,0,.503,1.43,1.173,1.012,.67-.418,.89-6.324-.216-8.063-1.105-1.739-8.704-1.789-10.351-1.407-.527,.122-3.85,2.296-4.86,4.098l4.573,.053,.055,.169Z" style="fill:#fdaa6d;"></path><path d="M217.002,155.27v-.011l-.711-4.462c-.01-.06-.073-.101-.141-.092-.068,.009-.116,.068-.106,.125l.711,4.462c.01,.06,.073,.101,.14,.092,.064-.009,.11-.059,.107-.114Z" style="opacity:.2;"></path><path d="M219.59,155.318v-.003l-.342-4.34c-.005-.061-.064-.105-.132-.1-.069,.005-.11,.048-.116,.118l.341,4.34c.005,.061,.064,.105,.133,.101,.068-.005,.119-.056,.116-.116Z" style="opacity:.2;"></path><path d="M221.969,154.519l-.162-3.232c-.003-.061-.061-.107-.13-.103-.068,.003-.122,.055-.119,.116l.162,3.233c.003,.061,.061,.107,.13,.103,.068-.003,.122-.055,.119-.116Z" style="opacity:.2;"></path></g><path d="M145.296,189.139l-.263-.957-9.103,2.001c3.13,2.741,8.157,2.064,10.066,.777l-.699-1.82Z" style="isolation:isolate; opacity:.3;"></path><g><path d="M131.878,191.781s12.718-.444,18.867-2.819c6.814-2.63,2.375-12.696,2.375-12.696,1.81-.649,3.336-1.909,4.317-3.562,1.387-2.442,.3-5.682-1.831-7.558-2.131-1.876-6.093-2.408-8.79-3.185,1.853-.455,2.697-2.874,1.975-4.65-.882-1.712-2.488-2.935-4.373-3.329-1.873-.379-3.767-.645-5.671-.799-2.641-.4-5.161-1.287-7.769-1.753-2.614-.618-5.362-.304-7.769,.888-1.809,1.146-3.208,2.836-3.995,4.828-.69,1.395-.923,2.971-.666,4.506,.305,1.559,1.576,2.745,3.152,2.941,0,0,4.595,23.694,10.177,27.19Z" style="fill:#263238;"></path><path d="M118.527,162.659c3.873-1.609,8.601,4.461,10.532,6.958,3.554,4.34,6.538,9.118,8.878,14.217,.877,2.086,1.465,4.75-.089,6.392-1.102,.922-2.492,1.428-3.929,1.432-2.54,.264-5.093,.379-7.647,.344-2.419-.033-4.983-.244-6.936-1.676-1.953-1.432-2.885-4.484-1.321-6.326-1.92,.433-3.807-1.132-4.439-2.963-.466-1.892-.466-3.868,0-5.76,.522-3.396,1.077-11.009,4.95-12.618Z" style="fill:#263238;"></path><path d="M146.017,190.97c.551,1.263,1.33,2.415,2.297,3.396,1.173,1.068,1.581,2.74,1.032,4.228-.766,1.92-2.475,4.728-6.248,8.357-.64,.629-1.424,1.093-2.283,1.353-2.934,.887-6.031-.772-6.917-3.706-.14-.445-.211-.909-.211-1.376,.023-1.594,.785-3.087,2.064-4.04,3.396-2.575,1.609-6.626-.311-9.888l8.057-9.444c.248,3.146,.848,6.254,1.787,9.267h0l.733,1.853Z" style="fill:#fdaa6d;"></path><path d="M125.608,177.93c-1.276-4.051-2.353-8.212-4.317-12.008-.282,.976-.45,1.982-.499,2.997-.087,1.933,.265,3.861,1.032,5.638,.566,1.343,1.065,2.564,1.554,3.673,1.853,4.339,3.274,7.081,5.849,9.2h0l.81,.411c-1.956-3.068-3.448-6.407-4.428-9.911Z" style="fill:#263238;"></path><path d="M144.752,164.402c-.244-.366-.488-.744-.755-1.11-2.675-3.651-6.148-6.326-10.443-6.515-5.132-.282-9.877,2.722-11.819,7.48-.183,.411-.339,.834-.466,1.265-.28,.976-.448,1.982-.499,2.997-.087,1.933,.265,3.861,1.032,5.638,.566,1.343,1.065,2.564,1.554,3.673,1.853,4.339,3.274,7.081,5.849,9.2h0c.749,.611,1.551,1.153,2.397,1.62,.266,.144,.544,.3,.843,.433,.713,.357,1.455,.65,2.22,.877,2.042,.64,4.217,.728,6.304,.255h.067c5.554-1.277,9.238-6.554,8.523-12.208-.577-4.835-2.218-9.482-4.805-13.606Z" style="fill:#fdaa6d;"></path><g><path d="M122.652,172.996c2.891,8.186,4.351,12.861,9.896,15.891,8.341,4.557,17.649-2.048,17.335-10.962-.282-8.023-4.962-20.061-14.298-20.957-9.198-.882-15.824,7.842-12.933,16.028Z" style="fill:#fdaa6d;"></path><path d="M127.308,177.753c.621-.189,1.243,.222,1.887,.288,14.638,1.443,19.231-1.224,20.451-2.778,.177,.843,.149,1.862,.238,2.661,.008,5.89-3.227,11.036-8.781,12.313h-.067c-2.087,.469-4.261,.381-6.304-.255-.764-.226-1.507-.52-2.22-.877-.3-.133-.577-.289-.843-.433-.846-.467-1.648-1.009-2.397-1.62h0c-1.084-.897-2.027-1.952-2.797-3.13-.208-1.041-.357-2.094-.444-3.152-.067-1.199,.155-2.708,1.276-3.019Z" style="isolation:isolate; opacity:.2;"></path><path d="M126.829,165.545c-.631-.972-1.684-1.589-2.841-1.665-.799,0-2.597,.067-3.019,0s-.899-.089-1.11,.233c-2.816,4.338-3.054,9.863-.621,14.428,2.439,3.831,5.898,6.905,9.988,8.878-2.586-2.12-3.995-4.861-5.86-9.2,.723-.198,1.47-.299,2.22-.3,.633-.011,2.408,2.353,2.675,1.776,.821-1.765-3.241-7.802-1.432-14.15Z" style="fill:#263238;"></path><path d="M121.467,180.885c1.295,1.954,3.403,3.124,5.339,3.471,2.912,.523,3.095-2.462,2.108-5.02-.889-2.302-2.415-4.983-5.252-4.347-2.794,.627-3.675,3.66-2.195,5.895Z" style="fill:#fdaa6d;"></path><path d="M134.576,171.397c.242,.853,.903,1.41,1.476,1.244,.573-.165,.842-.991,.6-1.843-.242-.853-.903-1.41-1.476-1.244-.573,.165-.842,.991-.6,1.844Z" style="fill:#263238;"></path><path d="M143.545,170.045c.242,.853,.903,1.41,1.476,1.244,.573-.165,.842-.991,.6-1.844s-.903-1.41-1.476-1.244c-.573,.166-.842,.991-.6,1.843Z" style="fill:#263238;"></path><path d="M141.577,170.06s3.982,3.463,5.363,4.941c-.918,1.412-3.164,1.504-3.164,1.504l-2.198-6.444Z" style="fill:#ff7e3c;"></path><path d="M130.678,169.398c.147,.016,.301-.044,.396-.171,1.14-1.503,2.709-1.453,2.725-1.453,.235,.01,.438-.167,.453-.396,.015-.229-.164-.422-.398-.433-.083-.004-2.049-.067-3.463,1.798-.141,.186-.103,.445,.086,.579,.061,.043,.13,.068,.201,.075Z" style="fill:#263238;"></path><path d="M127.4,179.691c-.098,0-.191-.058-.231-.154-.271-.655-.716-1.23-1.288-1.663-.369-.28-.96-.619-1.6-.585-.579,.021-1.114,.37-1.272,.828-.045,.131-.187,.201-.318,.155-.13-.045-.2-.187-.155-.318,.226-.656,.936-1.135,1.726-1.165,.801-.017,1.486,.357,1.921,.687,.642,.487,1.142,1.134,1.447,1.87,.053,.127-.008,.274-.135,.327-.031,.013-.063,.019-.096,.019Z" style="opacity:.2;"></path><path d="M147.293,165.097c.072-.037,.134-.095,.176-.17,.114-.203,.041-.456-.163-.565-2.053-1.095-3.785-.183-3.868-.152-.207,.111-.287,.364-.178,.566,.109,.201,.363,.276,.57,.168,.071-.041,1.414-.727,3.062,.153,.129,.069,.279,.064,.402,0Z" style="fill:#263238;"></path><path d="M143.87,179.436c-.591,1.041-1.105,2.124-1.539,3.239-.205-.043-.416-.082-.619-.135-2.796-.626-3.89-1.836-4.241-2.996-.162-.57-.188-1.171-.075-1.753,.056-.329,.157-.65,.301-.951,1.285,1.219,3.839,2.003,5.225,2.363,.605,.128,.948,.233,.948,.233Z" style="fill:#263238;"></path><path d="M142.951,179.183l-.481,.944c-2.625-.595-4.394-1.358-5.045-2.356,.056-.329,.157-.65,.301-.951,1.293,1.23,3.838,2.003,5.225,2.363Z" style="fill:#fff;"></path><path d="M141.742,182.52c-2.796-.626-3.89-1.836-4.241-2.996,1.058,.257,2.062,.699,2.966,1.307,.591,.416,1.037,1.007,1.276,1.689Z" style="fill:#f54948;"></path></g><path d="M123.388,158.076c-1.842,.91-3.451,3.052-2.619,4.939,.688,1.576,2.641,2.075,4.328,2.386,3.385,.677,6.859,1.243,10.255,.677,.977-.167,2.086-.544,2.419-1.487,.213-.758-.014-1.571-.588-2.109-.57-.521-1.233-.931-1.953-1.21,1.92,1.024,4.026,1.65,6.193,1.842,.755,.153,1.538-.024,2.153-.488,.548-.66,.589-1.604,.1-2.308-.488-.676-1.141-1.215-1.898-1.565-5.644-3.239-12.522-3.493-18.389-.677Z" style="fill:#263238;"></path></g></g></g></svg>
