<svg width="77" height="19" viewBox="0 0 77 19" fill="none" xmlns="http://www.w3.org/2000/svg">
<path d="M0.125 15.075C0.808333 15.075 1.275 15.0167 1.525 14.9C1.79167 14.7833 1.95833 14.5333 2.025 14.15C2.10833 13.7667 2.15 13.0667 2.15 12.05V0.799999H5.6V10.15C5.6 12.8333 5.5 14.675 5.3 15.675C5.1 16.6583 4.65 17.2917 3.95 17.575C3.26667 17.8583 1.99167 18 0.125 18V15.075ZM16.1953 0.799999V10.4C16.1953 12.6833 16.1203 14.325 15.9703 15.325C15.8203 16.3083 15.437 17.0333 14.8203 17.5C14.2036 17.9667 13.1786 18.2 11.7453 18.2C10.312 18.2 9.28698 17.9667 8.67031 17.5C8.05365 17.0333 7.67031 16.3083 7.52031 15.325C7.37031 14.325 7.29531 12.6833 7.29531 10.4V0.799999H10.7453V11.625C10.7453 12.825 10.762 13.6417 10.7953 14.075C10.8286 14.4917 10.9036 14.7667 11.0203 14.9C11.1536 15.0167 11.3953 15.075 11.7453 15.075C12.0953 15.075 12.3286 15.0167 12.4453 14.9C12.5786 14.7667 12.662 14.4917 12.6953 14.075C12.7286 13.6417 12.7453 12.825 12.7453 11.625V0.799999H16.1953ZM21.5154 18.2C20.9488 18.2 20.3154 18.1583 19.6154 18.075C18.9321 17.9917 18.3321 17.8833 17.8154 17.75V14.925C18.8988 15.025 19.8238 15.075 20.5904 15.075C21.0571 15.075 21.3988 15.0583 21.6154 15.025C21.8321 14.975 21.9988 14.875 22.1154 14.725C22.2154 14.575 22.2821 14.3833 22.3154 14.15C22.3654 13.9 22.3904 13.5667 22.3904 13.15C22.3904 12.4833 22.3654 12.0167 22.3154 11.75C22.2654 11.4833 22.1488 11.2917 21.9654 11.175C21.7988 11.0417 21.4904 10.925 21.0404 10.825L19.2154 10.4C18.6154 10.2667 18.1904 9.81667 17.9404 9.05C17.7071 8.28333 17.5904 7.20833 17.5904 5.825C17.5904 4.39167 17.7654 3.3 18.1154 2.55C18.4821 1.78333 18.9821 1.26667 19.6154 1C20.2488 0.733333 21.0571 0.599999 22.0404 0.599999C22.8404 0.599999 23.5488 0.658333 24.1654 0.775C24.7821 0.874999 25.1571 0.958333 25.2904 1.025V3.875C25.2238 3.84167 24.9654 3.80833 24.5154 3.775C24.0821 3.74167 23.5904 3.725 23.0404 3.725C22.5238 3.725 22.1321 3.75 21.8654 3.8C21.6154 3.83333 21.4404 3.925 21.3404 4.075C21.2071 4.20833 21.1154 4.4 21.0654 4.65C21.0321 4.88333 21.0154 5.23333 21.0154 5.7C21.0154 6.2 21.0321 6.56667 21.0654 6.8C21.1154 7.03333 21.1988 7.20833 21.3154 7.325C21.4321 7.425 21.6321 7.50833 21.9154 7.575L23.4904 7.95C23.9738 8.06667 24.3821 8.25 24.7154 8.5C25.0654 8.75 25.3404 9.18333 25.5404 9.8C25.7404 10.4 25.8404 11.3167 25.8404 12.55C25.8404 14.1667 25.6654 15.3833 25.3154 16.2C24.9821 17.0167 24.5154 17.5583 23.9154 17.825C23.3154 18.075 22.5154 18.2 21.5154 18.2ZM28.9689 18V3.975H26.4439V0.799999H34.9189V3.975H32.3939V18H28.9689ZM39.2807 0.799999H43.4557C44.939 0.799999 45.989 1.05833 46.6057 1.575C47.239 2.075 47.6307 2.86667 47.7807 3.95C47.9307 5.03333 48.0057 6.85 48.0057 9.4C48.0057 11.95 47.9307 13.7667 47.7807 14.85C47.6307 15.9333 47.239 16.7333 46.6057 17.25C45.989 17.75 44.939 18 43.4557 18H39.2807V0.799999ZM43.4557 14.875C43.8557 14.875 44.1223 14.7917 44.2557 14.625C44.4057 14.4583 44.4973 14.025 44.5307 13.325C44.5807 12.625 44.6057 11.3167 44.6057 9.4C44.6057 7.48333 44.5807 6.175 44.5307 5.475C44.4973 4.775 44.4057 4.34167 44.2557 4.175C44.1223 4.00833 43.8557 3.925 43.4557 3.925H42.6807V14.875H43.4557ZM53.9561 18.2C52.4727 18.2 51.4144 17.9417 50.7811 17.425C50.1644 16.9083 49.7811 16.1 49.6311 15C49.4811 13.8833 49.4061 12.0167 49.4061 9.4C49.4061 6.78333 49.4811 4.925 49.6311 3.825C49.7811 2.70833 50.1644 1.89167 50.7811 1.375C51.4144 0.858332 52.4727 0.599999 53.9561 0.599999C55.4394 0.599999 56.4894 0.858332 57.1061 1.375C57.7394 1.89167 58.1311 2.70833 58.2811 3.825C58.4311 4.94167 58.5061 6.8 58.5061 9.4C58.5061 12 58.4311 13.8583 58.2811 14.975C58.1311 16.0917 57.7394 16.9083 57.1061 17.425C56.4894 17.9417 55.4394 18.2 53.9561 18.2ZM53.9561 15.075C54.3394 15.075 54.5977 14.9917 54.7311 14.825C54.8644 14.6417 54.9477 14.2 54.9811 13.5C55.0311 12.7833 55.0561 11.4167 55.0561 9.4C55.0561 7.38333 55.0311 6.025 54.9811 5.325C54.9477 4.60833 54.8644 4.16667 54.7311 4C54.5977 3.81667 54.3394 3.725 53.9561 3.725C53.5727 3.725 53.3144 3.81667 53.1811 4C53.0477 4.16667 52.9561 4.60833 52.9061 5.325C52.8727 6.025 52.8561 7.38333 52.8561 9.4C52.8561 11.4167 52.8727 12.7833 52.9061 13.5C52.9561 14.2 53.0477 14.6417 53.1811 14.825C53.3144 14.9917 53.5727 15.075 53.9561 15.075ZM63.7924 18V0.799999H67.2424V18H63.7924ZM70.8879 18V3.975H68.3629V0.799999H76.8379V3.975H74.3129V18H70.8879Z" fill="black"/>
</svg>
