<svg width="115" height="18" viewBox="0 0 115 18" fill="none" xmlns="http://www.w3.org/2000/svg">
<path d="M6.225 2.5V17H4.025V2.5H7.07805e-08V0.374999H10.25V2.5H6.225ZM15.8348 6.9C15.4348 6.71667 15.0764 6.625 14.7598 6.625C14.0931 6.625 13.5431 6.85833 13.1098 7.325C12.6431 7.825 12.4098 8.4 12.4098 9.05V17H10.2598V9.05C10.2598 8.15 10.4848 7.325 10.9348 6.575C11.4014 5.825 12.0348 5.24167 12.8348 4.825C13.4348 4.54167 14.0764 4.4 14.7598 4.4C15.3098 4.4 15.8348 4.5 16.3348 4.7C16.8348 4.9 17.3598 5.225 17.9098 5.675L15.8348 6.9ZM28.0508 17V15.1C27.5174 15.7167 26.9008 16.2083 26.2008 16.575C25.5008 16.9417 24.7591 17.125 23.9758 17.125C23.1091 17.125 22.2924 16.9667 21.5258 16.65C20.7758 16.3333 20.1091 15.8833 19.5258 15.3C18.9424 14.7333 18.4841 14.0667 18.1508 13.3C17.8341 12.5167 17.6758 11.7 17.6758 10.85C17.6758 10 17.8341 9.19167 18.1508 8.425C18.4841 7.64167 18.9424 6.95833 19.5258 6.375C20.1091 5.79167 20.7758 5.34167 21.5258 5.025C22.2924 4.70833 23.1091 4.55 23.9758 4.55C24.7758 4.55 25.5258 4.71667 26.2258 5.05C26.9424 5.38333 27.5508 5.85 28.0508 6.45V4.8H30.3008V17H28.0508ZM23.9758 6.775C23.4258 6.775 22.8924 6.88333 22.3758 7.1C21.8758 7.3 21.4424 7.58333 21.0758 7.95C20.7091 8.31667 20.4174 8.75833 20.2008 9.275C20.0008 9.775 19.9008 10.3 19.9008 10.85C19.9008 11.4 20.0008 11.925 20.2008 12.425C20.4174 12.925 20.7091 13.3583 21.0758 13.725C21.4424 14.0917 21.8758 14.3833 22.3758 14.6C22.8924 14.8 23.4258 14.9 23.9758 14.9C24.5258 14.9 25.0508 14.8 25.5508 14.6C26.0508 14.3833 26.4841 14.0917 26.8508 13.725C27.2174 13.3583 27.5008 12.925 27.7008 12.425C27.9174 11.925 28.0258 11.4 28.0258 10.85C28.0258 10.3 27.9174 9.775 27.7008 9.275C27.5008 8.75833 27.2174 8.31667 26.8508 7.95C26.4841 7.58333 26.0508 7.3 25.5508 7.1C25.0508 6.88333 24.5258 6.775 23.9758 6.775ZM42.5307 17V15.075C41.9973 15.7083 41.364 16.2083 40.6307 16.575C39.914 16.9417 39.164 17.125 38.3807 17.125C37.4973 17.125 36.6723 16.9667 35.9057 16.65C35.139 16.3167 34.4723 15.85 33.9057 15.25C33.3223 14.65 32.864 13.9667 32.5307 13.2C32.214 12.4167 32.0557 11.5917 32.0557 10.725C32.0557 9.85833 32.214 9.04167 32.5307 8.275C32.864 7.49167 33.3223 6.8 33.9057 6.2C34.4723 5.6 35.139 5.14167 35.9057 4.825C36.6723 4.49167 37.4973 4.325 38.3807 4.325C39.2473 4.325 40.0307 4.5 40.7307 4.85C41.4473 5.2 42.0473 5.68333 42.5307 6.3V0.399999H44.7307V17H42.5307ZM38.3807 6.6C37.8307 6.6 37.3057 6.70833 36.8057 6.925C36.3057 7.125 35.8723 7.41667 35.5057 7.8C35.139 8.18333 34.8473 8.63333 34.6307 9.15C34.414 9.65 34.3057 10.175 34.3057 10.725C34.3057 11.8417 34.7057 12.8167 35.5057 13.65C35.8723 14.0333 36.3057 14.3333 36.8057 14.55C37.3057 14.7667 37.8307 14.875 38.3807 14.875C38.9307 14.875 39.4557 14.7667 39.9557 14.55C40.4723 14.3333 40.914 14.0333 41.2807 13.65C42.0807 12.8167 42.4807 11.8417 42.4807 10.725C42.4807 10.175 42.3723 9.65 42.1557 9.15C41.939 8.63333 41.6473 8.18333 41.2807 7.8C40.914 7.41667 40.4723 7.125 39.9557 6.925C39.4557 6.70833 38.9307 6.6 38.3807 6.6ZM49.3727 11.7C49.3727 12.1 49.5143 12.5167 49.7977 12.95C50.0977 13.3833 50.4393 13.75 50.8227 14.05C51.5227 14.6 52.3393 14.875 53.2727 14.875C54.756 14.875 55.9643 14.1583 56.8977 12.725L58.7977 13.85C58.1477 14.9 57.3477 15.7083 56.3977 16.275C55.4477 16.8417 54.406 17.125 53.2727 17.125C52.4227 17.125 51.6143 16.9667 50.8477 16.65C50.081 16.3167 49.406 15.8583 48.8227 15.275C48.2393 14.6917 47.781 14.0167 47.4477 13.25C47.131 12.4833 46.9727 11.675 46.9727 10.825C46.9727 9.975 47.131 9.16667 47.4477 8.4C47.781 7.61667 48.2393 6.93333 48.8227 6.35C49.3893 5.76667 50.056 5.31667 50.8227 5C51.606 4.68333 52.4227 4.525 53.2727 4.525C54.1227 4.525 54.931 4.68333 55.6977 5C56.481 5.31667 57.156 5.76667 57.7227 6.35C58.956 7.61667 59.5727 9.08333 59.5727 10.75C59.5727 11.05 59.5477 11.3667 59.4977 11.7H49.3727ZM53.2727 6.575C52.5893 6.575 51.9477 6.725 51.3477 7.025C50.7477 7.325 50.2643 7.725 49.8977 8.225C49.5477 8.70833 49.3727 9.225 49.3727 9.775H57.1727C57.1727 9.225 56.9893 8.70833 56.6227 8.225C56.2727 7.725 55.7977 7.325 55.1977 7.025C54.5977 6.725 53.956 6.575 53.2727 6.575ZM76.1973 17V9.175C76.1973 8.49167 75.9556 7.91667 75.4723 7.45C75.0056 6.98333 74.4306 6.75 73.7473 6.75C73.0806 6.75 72.4973 6.98333 71.9973 7.45C71.5139 7.9 71.2723 8.46667 71.2723 9.15V17H68.9973V9.15C68.9973 8.45 68.7639 7.88333 68.2973 7.45C67.7973 6.98333 67.2056 6.75 66.5223 6.75C65.8556 6.75 65.2889 6.98333 64.8223 7.45C64.3223 7.95 64.0723 8.54167 64.0723 9.225V17H61.8223V4.8H64.0723V5.725C64.3556 5.375 64.7223 5.08333 65.1723 4.85C65.6389 4.61667 66.0889 4.5 66.5223 4.5C67.2556 4.5 67.9223 4.65 68.5223 4.95C69.1389 5.23333 69.6723 5.63333 70.1223 6.15C70.5723 5.63333 71.1056 5.23333 71.7223 4.95C72.3389 4.65 73.0139 4.5 73.7473 4.5C74.3973 4.5 75.0056 4.61667 75.5723 4.85C76.1389 5.08333 76.6389 5.41667 77.0723 5.85C77.5056 6.28333 77.8389 6.79167 78.0723 7.375C78.3223 7.94167 78.4473 8.54167 78.4473 9.175V17H76.1973ZM91.0635 17V15.1C90.5301 15.7167 89.9135 16.2083 89.2135 16.575C88.5135 16.9417 87.7718 17.125 86.9885 17.125C86.1218 17.125 85.3051 16.9667 84.5385 16.65C83.7885 16.3333 83.1218 15.8833 82.5385 15.3C81.9551 14.7333 81.4968 14.0667 81.1635 13.3C80.8468 12.5167 80.6885 11.7 80.6885 10.85C80.6885 10 80.8468 9.19167 81.1635 8.425C81.4968 7.64167 81.9551 6.95833 82.5385 6.375C83.1218 5.79167 83.7885 5.34167 84.5385 5.025C85.3051 4.70833 86.1218 4.55 86.9885 4.55C87.7885 4.55 88.5385 4.71667 89.2385 5.05C89.9551 5.38333 90.5635 5.85 91.0635 6.45V4.8H93.3135V17H91.0635ZM86.9885 6.775C86.4385 6.775 85.9051 6.88333 85.3885 7.1C84.8885 7.3 84.4551 7.58333 84.0885 7.95C83.7218 8.31667 83.4301 8.75833 83.2135 9.275C83.0135 9.775 82.9135 10.3 82.9135 10.85C82.9135 11.4 83.0135 11.925 83.2135 12.425C83.4301 12.925 83.7218 13.3583 84.0885 13.725C84.4551 14.0917 84.8885 14.3833 85.3885 14.6C85.9051 14.8 86.4385 14.9 86.9885 14.9C87.5385 14.9 88.0635 14.8 88.5635 14.6C89.0635 14.3833 89.4968 14.0917 89.8635 13.725C90.2301 13.3583 90.5135 12.925 90.7135 12.425C90.9301 11.925 91.0385 11.4 91.0385 10.85C91.0385 10.3 90.9301 9.775 90.7135 9.275C90.5135 8.75833 90.2301 8.31667 89.8635 7.95C89.4968 7.58333 89.0635 7.3 88.5635 7.1C88.0635 6.88333 87.5385 6.775 86.9885 6.775ZM101.382 6.9C100.982 6.71667 100.623 6.625 100.307 6.625C99.64 6.625 99.09 6.85833 98.6566 7.325C98.19 7.825 97.9566 8.4 97.9566 9.05V17H95.8066V9.05C95.8066 8.15 96.0316 7.325 96.4816 6.575C96.9483 5.825 97.5816 5.24167 98.3816 4.825C98.9816 4.54167 99.6233 4.4 100.307 4.4C100.857 4.4 101.382 4.5 101.882 4.7C102.382 4.9 102.907 5.225 103.457 5.675L101.382 6.9ZM110.893 10.9L114.618 17H112.018L109.618 13.025L107.193 17H104.643L108.318 10.9L104.468 4.5H107.018L109.618 8.775L112.193 4.5H114.768L110.893 10.9Z" fill="black"/>
</svg>
