<svg id="visual" viewBox="0 0 900 600" width="900" height="600" xmlns="http://www.w3.org/2000/svg" xmlns:xlink="http://www.w3.org/1999/xlink" version="1.1"><rect x="0" y="0" width="900" height="600" fill="#001F4D"></rect><path d="M0 464L21.5 461.2C43 458.3 86 452.7 128.8 457.2C171.7 461.7 214.3 476.3 257.2 474.2C300 472 343 453 385.8 453.3C428.7 453.7 471.3 473.3 514.2 475.2C557 477 600 461 642.8 464C685.7 467 728.3 489 771.2 487.3C814 485.7 857 460.3 878.5 447.7L900 435L900 601L878.5 601C857 601 814 601 771.2 601C728.3 601 685.7 601 642.8 601C600 601 557 601 514.2 601C471.3 601 428.7 601 385.8 601C343 601 300 601 257.2 601C214.3 601 171.7 601 128.8 601C86 601 43 601 21.5 601L0 601Z" fill="#fff" stroke-linecap="round" stroke-linejoin="miter"></path></svg>